<svg width="26" height="26" viewBox="0 0 26 26" fill="none" xmlns="http://www.w3.org/2000/svg">
<circle cx="13" cy="13" r="13" fill="white"/>
<path opacity="0.99" fill-rule="evenodd" clip-rule="evenodd" d="M13.2841 7.05407C14.6263 7.03715 15.6038 7.62113 16.2167 8.80602C16.6729 9.94855 16.529 11.0065 15.7851 11.9798C14.8318 12.9936 13.6934 13.2772 12.3701 12.8304C11.3979 12.4139 10.7928 11.6903 10.5546 10.6595C10.3398 9.24878 10.8349 8.16969 12.04 7.42223C12.4344 7.21871 12.8491 7.09599 13.2841 7.05407Z" fill="#609EFF"/>
<path opacity="0.99" fill-rule="evenodd" clip-rule="evenodd" d="M10.4148 13.7412C10.4447 13.7356 10.4701 13.7441 10.491 13.7665C11.2996 14.6277 12.2983 15.0763 13.4871 15.1123C14.6753 15.0749 15.674 14.6263 16.4832 13.7665C17.3529 14.0301 18.0512 14.5379 18.5779 15.29C19.0519 16.0822 19.035 16.8609 18.5271 17.6259C18.0715 18.1099 17.5172 18.4273 16.8641 18.5781C16.1635 18.7507 15.4525 18.8523 14.7312 18.8828C13.7743 18.9367 12.818 18.9282 11.8621 18.8574C11.0305 18.8146 10.2265 18.6454 9.44999 18.3496C8.17761 17.7726 7.78406 16.8289 8.26933 15.5185C8.60364 14.9134 9.07336 14.4436 9.67851 14.1093C9.92548 13.9858 10.1709 13.8631 10.4148 13.7412Z" fill="#609EFF"/>
</svg>
