<svg width="60" height="59" viewBox="0 0 60 59" fill="none" xmlns="http://www.w3.org/2000/svg">
<path d="M21.4032 2.16907C20.7151 2.39843 19.683 3.32737 19.4192 3.96959C19.316 4.23337 19.0522 5.20817 18.8229 6.11417C17.9169 9.89872 17.3549 13.2704 17.2173 15.6558L17.1485 17.0091L17.4811 17.3302C17.7563 17.6054 17.9972 17.6972 18.9261 17.8577C24.3047 18.8096 36.1056 18.8096 41.209 17.8577C42.0462 17.6972 42.31 17.594 42.5738 17.3302L42.9064 17.0091L42.8261 15.6099C42.7802 14.8416 42.7114 14.0847 42.677 13.9356L42.6082 13.6603L43.6174 13.7406C46.2666 13.9356 50.8424 14.7269 53.01 15.3576C54.0994 15.6788 55.3839 16.2407 55.5903 16.493C56.2555 17.2958 52.3907 18.5688 46.8744 19.3601C38.5713 20.5643 26.392 20.7478 16.9535 19.8188C11.552 19.2913 7.0105 18.3738 5.14116 17.4219C4.10901 16.9059 4.13195 16.665 5.24438 16.1146C6.88435 15.2888 10.0496 14.5434 14.247 13.9814C15.2906 13.8438 15.6691 13.0754 15.0039 12.4218C14.614 12.0204 14.8434 12.0089 11.4487 12.5594C4.7283 13.6603 1.78094 15.2888 2.664 17.4105C3.45532 19.2913 8.08852 20.7363 15.9214 21.5391C19.0981 21.8717 24.2589 22.1813 26.4608 22.1813C27.6306 22.1813 27.642 22.1813 27.5847 22.4336C27.5503 22.5827 27.3324 23.6722 27.0915 24.8534C26.4837 27.9155 26.5755 27.8581 23.0088 27.7778C20.7381 27.732 20.3596 27.6173 19.4307 26.7686C18.7082 26.1035 18.4903 25.7021 18.2265 24.5896C17.9857 23.5231 17.7449 23.2134 17.16 23.2134C16.77 23.2134 16.2654 23.6607 16.2654 24.0162C16.2654 24.4979 16.6439 25.92 16.9191 26.4819C17.5614 27.7664 18.7885 28.8444 20.1303 29.3146C20.8528 29.5554 21.0821 29.5784 23.4905 29.5784C25.9447 29.5784 26.1053 29.5669 26.6443 29.3146C27.3782 28.9705 28.009 28.3627 28.2842 27.6976C28.4104 27.4109 28.7315 26.0691 29.0068 24.7273L29.4884 22.296H29.8439C31.3463 22.296 37.8832 22.0322 39.8787 21.8946C41.232 21.8028 42.3559 21.734 42.3674 21.757C42.3788 21.7684 42.2297 22.6171 42.0118 23.6492C41.599 25.6677 41.4499 26.0117 40.6242 26.7686C39.6952 27.6173 39.3168 27.732 37.046 27.7778C33.5941 27.8581 33.5482 27.8352 33.078 25.4268C32.734 23.6836 32.539 23.3281 31.9541 23.3281C31.4954 23.3281 31.1857 23.5116 31.0481 23.8671C30.9105 24.2227 31.4036 26.8604 31.7706 27.6976C32.0459 28.3627 32.6766 28.9705 33.4106 29.3146C33.9611 29.5669 34.1102 29.5784 36.6217 29.5669C39.0415 29.5669 39.3168 29.544 39.9361 29.3146C40.8421 28.982 41.5875 28.4889 42.2183 27.8122C43.0784 26.8948 43.388 26.1264 43.8812 23.7066L44.317 21.5505L45.0051 21.4588C51.8517 20.5987 55.4068 19.6009 56.8633 18.1444C57.7808 17.227 57.7693 16.298 56.8174 15.3576C55.8082 14.3484 53.8013 13.5571 50.5557 12.892C48.8355 12.5479 45.3721 12.0433 43.6747 11.9057C43.1357 11.8713 42.6197 11.791 42.5164 11.7337C42.4018 11.6763 42.2985 11.3323 42.2068 10.7474C42.0233 9.55467 41.0944 5.4146 40.7962 4.45126C40.6012 3.80904 40.4407 3.5682 39.9017 3.01772C39.3741 2.49018 39.0989 2.31816 38.5713 2.16907C37.4704 1.84795 37.0575 1.9397 33.3877 3.40765L30.0274 4.74944L26.6787 3.40765C23.0203 1.95117 22.4927 1.82502 21.4032 2.16907ZM26.4149 5.27698L30.0274 6.71052L33.64 5.27698C35.6469 4.4742 37.4245 3.83197 37.6309 3.83197C38.1011 3.83197 38.686 4.18749 38.8924 4.60035C39.5461 5.87334 41.3123 15.6558 40.9567 15.9999C40.8306 16.1146 38.4337 16.4127 36.2777 16.5733C34.0299 16.7453 26.1167 16.7453 23.7772 16.5733C21.6326 16.4127 19.2357 16.1146 19.0981 15.9884C18.7426 15.6558 20.5087 5.87334 21.1624 4.60035C21.3688 4.18749 21.9537 3.83197 22.4239 3.83197C22.6304 3.83197 24.408 4.4742 26.4149 5.27698Z" fill="white"/>
<path d="M45.0962 25.1974C44.8668 25.3924 44.7865 25.5758 44.7865 25.8511C44.7865 26.4245 45.1879 26.7112 46.1513 26.8144C48.0665 27.0094 50.9221 27.8351 53.3304 28.8902C54.764 29.521 54.8901 29.5898 54.741 29.7274C54.6722 29.7847 52.6538 31.2641 50.234 33.0188C47.8256 34.762 45.7957 36.2873 45.7384 36.402C45.6696 36.5166 45.6237 36.7231 45.6237 36.8492C45.6237 36.9754 46.3462 38.1681 47.2407 39.5099C48.1238 40.8402 48.8119 41.9756 48.7546 42.0329C48.7087 42.0788 44.798 44.1889 40.0845 46.7234C32.4695 50.7947 31.4833 51.2993 31.2883 51.1617C30.8984 50.8864 25.3936 45.6225 23.8339 44.0169C22.0448 42.182 21.1847 40.9778 20.1067 38.753C19.0401 36.574 18.1571 34.028 17.7557 32.021C17.5492 30.9889 16.8841 30.6104 16.2075 31.1495C15.9093 31.3903 15.8978 31.4247 15.9551 32.1472C16.0928 33.7298 17.3658 37.4456 18.6043 39.8883C20.0493 42.7325 20.9553 43.8449 24.7628 47.5148C26.3684 49.0515 27.9854 50.6227 28.3639 51.0011L29.052 51.6778L28.3065 51.2764C27.8937 51.0585 23.9256 48.9254 19.4759 46.5514C15.0262 44.1775 11.3449 42.1935 11.299 42.1361C11.2417 42.0902 11.9298 40.9549 12.8128 39.6246C13.845 38.0649 14.4299 37.09 14.4299 36.8951C14.4299 36.7116 14.2922 36.4708 14.0514 36.2414C13.8335 36.0464 11.7692 34.5211 9.46408 32.8468C7.14747 31.1724 5.2552 29.7733 5.2552 29.7389C5.2552 29.6242 7.21628 28.764 8.76451 28.2021C10.4389 27.5943 12.0789 27.1814 13.6615 26.9635C14.2693 26.8718 14.8542 26.7341 14.9574 26.6539C15.4391 26.2525 15.3703 25.5644 14.8313 25.2089C14.5675 25.0368 14.4184 25.0254 13.3633 25.1515C11.861 25.335 9.59023 25.9199 7.75529 26.5965C5.87449 27.2846 2.9386 28.7296 2.68629 29.0737C2.42252 29.4636 2.45693 29.8191 2.82391 30.1976C2.99594 30.3811 5.17492 32.021 7.66355 33.833C10.1522 35.6336 12.1821 37.1589 12.1706 37.2162C12.1477 37.2735 11.4137 38.3974 10.5306 39.7278C9.59023 41.1498 8.92506 42.2623 8.92506 42.4228C8.92506 42.5719 9.03975 42.8242 9.18884 42.9848C9.56729 43.4091 35.1646 57.0793 35.5775 57.0793C36.1509 57.0793 36.5867 56.4027 36.3802 55.8522C36.3344 55.749 35.5316 54.9806 34.5912 54.1549L32.8709 52.6526L33.2494 52.4461C37.183 50.4277 50.6812 43.088 50.8762 42.8701C51.0138 42.7095 51.1285 42.4572 51.1285 42.3081C51.1285 42.1476 50.4519 41.0122 49.4771 39.5443L47.8256 37.0556L48.0665 36.8607C48.2041 36.7575 50.234 35.2895 52.562 33.5922C54.9016 31.9064 56.9774 30.3581 57.1838 30.1402C57.9292 29.3604 57.654 28.9475 55.7388 27.9842C52.8602 26.5507 49.672 25.4841 47.1834 25.1056C45.6237 24.8763 45.4632 24.8877 45.0962 25.1974Z" fill="white"/>
<path d="M42.7574 30.9888C42.5624 31.1494 42.3904 31.5966 42.0693 32.9155C41.5418 35.0142 41.0142 36.4477 40.0509 38.4662C38.7435 41.1727 38.1586 41.9411 34.8901 45.221C31.8281 48.2831 31.7593 48.3863 32.0919 49.017C32.2295 49.2808 32.8258 49.4872 33.124 49.384C33.491 49.2464 38.2045 44.6361 39.0302 43.5925C41.0601 41.0695 42.8033 37.3996 43.801 33.5577C44.2253 31.8834 44.2368 31.3443 43.8354 31.0232C43.457 30.7251 43.09 30.7136 42.7574 30.9888Z" fill="white"/>
</svg>
