<svg width="15" height="16" viewBox="0 0 15 16" fill="none" xmlns="http://www.w3.org/2000/svg">
<path d="M13.2891 2.72605C13.6436 2.7636 13.9922 2.94716 14.1445 3.18079C14.2148 3.28509 14.2236 3.32473 14.2236 3.51873C14.2236 3.71689 14.2148 3.75027 14.1416 3.85666C14.0303 4.01728 13.8281 4.15704 13.5938 4.23631L13.4033 4.30097L7.55859 4.30723C2.27344 4.3114 1.70215 4.30932 1.55566 4.27803C1.21875 4.20919 0.93457 4.01728 0.814453 3.7753C0.732422 3.60634 0.74707 3.34767 0.855469 3.18497C1.0166 2.93465 1.3418 2.76568 1.73145 2.72605C1.95703 2.7031 13.0664 2.7031 13.2891 2.72605Z" fill="white"/>
<path d="M13.4531 7.56014C13.7666 7.63308 14.0039 7.77896 14.1416 7.98945C14.2148 8.0999 14.2236 8.13741 14.2236 8.32289C14.2236 8.50419 14.2148 8.54587 14.1445 8.65007C14.0537 8.79179 13.8691 8.93767 13.6963 9.00852C13.4092 9.12939 13.5352 9.12523 9.75586 9.12523C6.97266 9.12523 6.25195 9.11897 6.12012 9.09605C5.54883 9.00227 5.16797 8.59381 5.27051 8.19368C5.34082 7.92068 5.56055 7.71436 5.91211 7.59766L6.1084 7.53097L9.69727 7.5268C13.0986 7.52263 13.2949 7.52472 13.4531 7.56014Z" fill="white"/>
<path d="M13.4501 12.0262C13.7655 12.0986 14.0751 12.3304 14.1715 12.5665C14.2416 12.743 14.2153 12.9961 14.1072 13.1556C13.9992 13.3151 13.8035 13.4576 13.5815 13.5384L13.4063 13.6001H7.49212H1.57795L1.41148 13.5427C1.19536 13.4704 0.985075 13.3151 0.874093 13.1535C0.798158 13.0365 0.789396 13.0067 0.789396 12.8025C0.789396 12.5984 0.798158 12.5686 0.874093 12.4516C0.985075 12.29 1.18075 12.1475 1.40272 12.0667L1.57795 12.005L7.44831 12.0007C12.4133 11.9986 13.3391 12.0007 13.4501 12.0262Z" fill="white"/>
</svg>
