<svg width="28" height="28" viewBox="0 0 28 28" fill="none" xmlns="http://www.w3.org/2000/svg">
<g opacity="0.7">
<path d="M4.18321 3.59293C3.59805 3.89918 3.34649 4.54996 3.58164 5.12965C3.6418 5.27184 4.97071 6.63356 8.00039 9.66871L12.3316 14L8.02774 18.3093C3.53789 22.7992 3.50508 22.8375 3.49961 23.2914C3.49414 23.9531 4.04649 24.5054 4.70821 24.5C5.16211 24.4945 5.20039 24.4617 9.69024 19.9718L13.9996 15.6679L18.309 19.9718C22.7988 24.4617 22.8371 24.4945 23.291 24.5C23.9527 24.5054 24.5051 23.9531 24.4996 23.2914C24.4941 22.8375 24.4613 22.7992 19.9715 18.3093L15.6676 14L19.9988 9.66871C23.0285 6.63356 24.3574 5.27184 24.4176 5.12965C24.5816 4.72496 24.4777 4.15621 24.177 3.84449C23.8652 3.52184 23.2965 3.40699 22.8699 3.58199C22.7277 3.64215 21.366 4.97106 18.3363 8.00074L13.9996 12.332L9.66836 8.00074C6.63321 4.97106 5.27149 3.64215 5.1293 3.58199C4.8668 3.47809 4.39649 3.47809 4.18321 3.59293Z" fill="white"/>
</g>
</svg>
