<svg width="22" height="22" viewBox="0 0 22 22" fill="none" xmlns="http://www.w3.org/2000/svg">
<path d="M3.21391 2.32444C2.84438 2.37171 2.27719 2.58226 1.97641 2.77991C1.39203 3.16233 1.04828 3.55335 0.768984 4.14632C0.468203 4.79515 0.468203 4.79515 0.481093 7.92757L0.493984 10.7205L0.627187 11.0987C0.820547 11.6358 1.00102 11.9151 1.4393 12.3534C1.87758 12.7959 2.31156 13.0451 2.87875 13.1869L3.20102 13.2686L3.2225 14.983C3.24398 16.8694 3.23539 16.8006 3.51469 16.9166C3.62641 16.9639 3.69086 16.9639 3.79398 16.9338C3.88852 16.9037 4.52016 16.2979 5.73617 15.0819L7.54086 13.2772H11.7776C16.5772 13.2772 16.3151 13.2944 17.0584 12.9248C17.3549 12.7787 17.501 12.667 17.8319 12.3319C18.167 12.001 18.2788 11.8549 18.4248 11.5584C18.7815 10.8451 18.7772 10.8752 18.7772 7.81155C18.7772 4.75647 18.7772 4.77796 18.4549 4.10335C17.9737 3.10647 17.0713 2.45765 15.9756 2.32015C15.5416 2.26858 3.6393 2.26858 3.21391 2.32444ZM16.3495 3.33851C17.0756 3.61351 17.6342 4.24515 17.8104 4.98851C17.9049 5.39671 17.9049 10.2006 17.8104 10.6088C17.6342 11.3565 17.0541 11.9881 16.2893 12.2631C16.053 12.3534 15.9541 12.3534 11.5928 12.3748L7.13266 12.3963L5.62875 13.9002L4.12914 15.3998L4.11625 14.0162L4.10336 12.6326L3.99164 12.5209C3.89711 12.4307 3.81977 12.4049 3.54477 12.3705C3.09359 12.3233 2.82289 12.2373 2.49633 12.044C1.985 11.7389 1.5768 11.1846 1.4393 10.6088C1.34477 10.2092 1.34477 5.39671 1.4393 5.0014C1.63695 4.15921 2.2557 3.51897 3.09359 3.28265C3.24398 3.23968 4.67055 3.23108 9.6893 3.23538L16.0916 3.24397L16.3495 3.33851Z" fill="#609EFF"/>
<path d="M4.00883 6.04967C3.30414 6.30318 2.82289 6.91764 2.76274 7.6524C2.6725 8.74381 3.6307 9.70201 4.72211 9.61178C5.2936 9.56451 5.80492 9.26373 6.1057 8.79537C6.34203 8.43014 6.41508 8.15084 6.39359 7.69537C6.36352 7.01217 5.99828 6.46217 5.37953 6.15709C5.08734 6.01099 5.02289 5.99381 4.64477 5.98521C4.3268 5.97232 4.1807 5.98951 4.00883 6.04967ZM4.8725 6.92623C5.22055 7.03365 5.49985 7.43326 5.49985 7.82857C5.49985 8.04771 5.30219 8.40865 5.11742 8.52896C4.70492 8.79537 4.28813 8.76099 3.95297 8.42154C3.4975 7.97037 3.60922 7.26998 4.17211 6.98639C4.42133 6.86178 4.6061 6.84889 4.8725 6.92623Z" fill="#609EFF"/>
<path d="M9.05755 6.05402C8.73099 6.16145 8.56341 6.26887 8.297 6.55246C7.29153 7.61379 7.8845 9.34543 9.34114 9.59465C10.5357 9.7966 11.6271 8.71809 11.4337 7.51926C11.3349 6.9134 10.8622 6.30754 10.3251 6.09699C9.97708 5.96379 9.3927 5.94231 9.05755 6.05402ZM9.98997 6.95637C10.6689 7.26145 10.7075 8.22824 10.0544 8.58918C9.49583 8.89856 8.78255 8.52043 8.73099 7.88449C8.67083 7.17981 9.36263 6.66848 9.98997 6.95637Z" fill="#609EFF"/>
<path d="M14.1152 6.0457C13.5953 6.23476 13.2344 6.55273 13.0066 7.03828C12.8777 7.30898 12.8691 7.35624 12.8691 7.79882C12.8691 8.24999 12.8777 8.28867 13.0152 8.57226C13.5867 9.73242 15.0992 9.97734 15.9801 9.04492C16.8438 8.13398 16.5816 6.69882 15.4516 6.14453C15.1852 6.01132 15.1078 5.99413 14.7426 5.98554C14.4289 5.97265 14.2785 5.98984 14.1152 6.0457ZM15.0777 6.98671C15.4602 7.18007 15.6363 7.5539 15.5504 7.98788C15.4859 8.30156 15.198 8.59804 14.8844 8.67538C14.4633 8.77421 14.0508 8.58085 13.8574 8.19413C13.677 7.8246 13.7371 7.44648 14.0293 7.15429C14.3215 6.85781 14.6996 6.79765 15.0777 6.98671Z" fill="#609EFF"/>
<path d="M20.8957 7.84163C20.6207 7.96194 20.625 7.90179 20.625 10.6217C20.625 13.3416 20.6207 13.4018 20.3543 13.8959C20.0793 14.4116 19.5336 14.867 19.0094 15.0217C18.8891 15.0561 18.6398 15.1034 18.4551 15.1205C18.1801 15.1549 18.1027 15.1807 18.0082 15.2709L17.8965 15.3826L17.8836 16.7662L17.8707 18.1498L16.3711 16.6502L14.8672 15.1463L11.5156 15.1334C7.78165 15.1205 7.96211 15.1076 7.83751 15.4127C7.75586 15.5975 7.81602 15.8123 7.9793 15.9412C8.08672 16.0272 8.14688 16.0272 11.275 16.0272H14.459L16.2637 17.8319C17.4797 19.0479 18.1113 19.6537 18.2059 19.6838C18.309 19.7139 18.3734 19.7139 18.4852 19.6666C18.7645 19.5506 18.7559 19.6194 18.7773 17.733L18.7988 16.0186L19.1211 15.9369C19.6883 15.7951 20.1223 15.5459 20.5606 15.1034C20.9988 14.6651 21.1793 14.3858 21.3727 13.8487L21.5059 13.4705L21.5188 10.7893C21.5316 7.81585 21.5445 7.96194 21.2481 7.83733C21.0719 7.76429 21.0676 7.76429 20.8957 7.84163Z" fill="#609EFF"/>
</svg>
