<svg width="34" height="34" viewBox="0 0 34 34" fill="none" xmlns="http://www.w3.org/2000/svg">
<path d="M20.3743 0.345272C19.4191 0.53121 18.6188 0.690585 18.6059 0.703866C18.593 0.717147 18.7027 0.916366 18.8447 1.14215C19.1738 1.66012 19.3997 2.18473 19.5869 2.84215C19.787 3.56598 19.7805 4.97379 19.5804 5.73746C18.8511 8.4734 16.2759 10.2929 13.591 9.96754C11.1708 9.67535 9.2539 7.87574 8.75693 5.43199C8.6343 4.83433 8.6343 3.72535 8.75693 3.11441C8.81502 2.84879 8.84083 2.62301 8.82793 2.60308C8.80856 2.5898 7.93081 2.74254 6.87234 2.9484C4.71022 3.3734 4.28425 3.52613 3.73565 4.07066C2.72236 5.09332 2.77399 6.81324 3.85182 7.82262C4.04544 8.00191 5.60088 9.01793 7.49193 10.1867C9.30553 11.3156 10.8158 12.2718 10.8416 12.3117C10.8674 12.3515 11.061 13.341 11.274 14.5097L11.6613 16.6347L16.3598 16.6546C19.4449 16.6613 21.052 16.648 21.052 16.6015C21.052 16.5418 20.0516 10.9371 19.987 10.6582C19.9677 10.5519 20.555 9.73512 22.3105 7.43746C23.8595 5.40543 24.7437 4.19019 24.8986 3.87808C25.5957 2.45699 24.9567 0.756991 23.5239 0.199179C22.8462 -0.0664463 22.3428 -0.0398846 20.3743 0.345272Z" fill="white"/>
<path d="M13.7264 0.570929C12.2678 0.803351 11.0609 1.9057 10.693 3.35999C10.3122 4.86077 10.9383 6.52757 12.2226 7.39749C14.2944 8.81195 17.1471 7.62327 17.728 5.10648C17.9151 4.2764 17.7861 3.25374 17.3924 2.50335C16.9793 1.7264 16.1467 1.01585 15.2948 0.730304C14.9011 0.597492 14.0879 0.517804 13.7264 0.570929Z" fill="white"/>
<path d="M4.14209 10.4723C4.14209 10.532 6.71727 22.8371 6.76245 22.9898C6.79472 23.1027 6.97544 23.1094 9.38281 23.1094H11.9644L11.8095 22.8902C11.5256 22.5117 11.1641 21.8277 10.9382 21.25C10.622 20.4465 10.4155 19.5965 9.75715 16.4023C9.43444 14.8484 9.15046 13.5602 9.12465 13.5402C9.00847 13.4273 4.14209 10.4324 4.14209 10.4723Z" fill="white"/>
<path d="M12.2488 18.9057C12.2746 19.0452 12.3585 19.4038 12.4424 19.7092C12.8748 21.2499 13.5073 22.1928 14.4432 22.6776C15.1983 23.0694 15.1273 23.0694 19.387 23.0893L23.2982 23.1159L23.3627 23.2952C24.2534 25.8651 26.7705 32.8178 26.8673 32.9838C27.0416 33.2694 27.4482 33.6213 27.8225 33.8073C28.2743 34.0397 29.0875 34.0264 29.578 33.794C30.5139 33.3424 31.0366 32.2534 30.7785 31.2772C30.6107 30.6331 27.1836 21.0374 26.9706 20.619C26.693 20.0745 25.9766 19.3506 25.441 19.0784C24.5955 18.6467 24.8601 18.66 18.2253 18.66H12.2036L12.2488 18.9057Z" fill="white"/>
<path d="M6.99484 29.212C7.0142 33.2695 7.0142 33.3292 7.14974 33.5152C7.22073 33.6148 7.38209 33.7741 7.50471 33.8538C7.92423 34.1527 8.58255 33.9468 8.8149 33.4421C8.90525 33.2429 8.91816 32.8445 8.91816 30.155V27.0937H11.3062H13.6942V30.1484C13.6942 33.5218 13.6942 33.5152 14.0879 33.8074C14.2492 33.9269 14.3912 33.9667 14.6429 33.9667C15.0044 33.9667 15.2238 33.8472 15.4626 33.5085C15.5917 33.3292 15.5981 33.2363 15.6175 30.2081L15.6369 27.0937H16.3404H17.0503V26.0976V25.1015H12.0161H6.98193L6.99484 29.212Z" fill="white"/>
<path d="M18.9993 28.7339L19.0187 32.3729L19.1994 32.7515C19.9158 34.2456 21.9747 34.4116 22.8847 33.0503C23.2526 32.4991 23.3107 32.1272 23.3107 30.4206V28.9331L22.6588 27.1003C22.2974 26.0909 21.9876 25.2276 21.9747 25.1812C21.9489 25.1214 21.5874 25.1015 20.4644 25.1015H18.98L18.9993 28.7339Z" fill="white"/>
</svg>
