<svg width="32" height="32" viewBox="0 0 32 32" fill="none" xmlns="http://www.w3.org/2000/svg">
<g clip-path="url(#clip0_141_7599)">
<path opacity="0.956" fill-rule="evenodd" clip-rule="evenodd" d="M15.7812 -0.03125C15.8438 -0.03125 15.9062 -0.03125 15.9688 -0.03125C21.2838 4.20047 26.6171 8.40881 31.9688 12.5937C31.9688 12.6354 31.9688 12.6771 31.9688 12.7187C31.5526 13.1769 31.1568 13.6561 30.7812 14.1562C25.9598 10.3661 21.1473 6.564 16.3438 2.75C16.2033 2.63039 16.047 2.53664 15.875 2.46875C10.993 6.37125 6.12844 10.2984 1.28125 14.25C1.13104 14.2894 1.01646 14.2373 0.9375 14.0937C0.623074 13.6861 0.300157 13.2902 -0.03125 12.9062C-0.03125 12.8646 -0.03125 12.8229 -0.03125 12.7812C5.25922 8.53219 10.5301 4.26138 15.7812 -0.03125ZM15.5312 7.59375C17.1537 7.51875 18.2266 8.24794 18.75 9.78125C18.9802 11.5608 18.2406 12.7171 16.5312 13.25C14.8446 13.4174 13.7301 12.6987 13.1875 11.0937C12.9882 9.26169 13.7694 8.09506 15.5312 7.59375Z" fill="white"/>
<path opacity="0.986" fill-rule="evenodd" clip-rule="evenodd" d="M31.9688 22.4688C31.9688 23.1146 31.9688 23.7604 31.9688 24.4062C31.4688 24.4062 30.9688 24.4062 30.4688 24.4062C30.4688 25.0104 30.4688 25.6146 30.4688 26.2188C30.9688 26.2188 31.4688 26.2188 31.9688 26.2188C31.9688 26.8646 31.9688 27.5104 31.9688 28.1562C28.6979 28.1562 25.4271 28.1562 22.1562 28.1562C22.1562 24.3646 22.1562 20.5729 22.1562 16.7812C18.0312 16.7812 13.9062 16.7812 9.78125 16.7812C9.78125 20.5729 9.78125 24.3646 9.78125 28.1562C6.51044 28.1562 3.23958 28.1562 -0.03125 28.1562C-0.03125 27.5104 -0.03125 26.8646 -0.03125 26.2188C0.489583 26.2188 1.01042 26.2188 1.53125 26.2188C1.53125 25.6146 1.53125 25.0104 1.53125 24.4062C1.01042 24.4062 0.489583 24.4062 -0.03125 24.4062C-0.03125 23.7604 -0.03125 23.1146 -0.03125 22.4688C0.489583 22.4688 1.01042 22.4688 1.53125 22.4688C1.53125 21.6146 1.53125 20.7604 1.53125 19.9062C2.17708 19.9062 2.82292 19.9062 3.46875 19.9062C3.46875 20.7604 3.46875 21.6146 3.46875 22.4688C4.03125 22.4688 4.59375 22.4688 5.15625 22.4688C5.14583 19.4062 5.15625 16.3437 5.1875 13.2812C8.76944 10.4181 12.3424 7.54312 15.9062 4.65625C19.5715 7.54019 23.2278 10.436 26.875 13.3438C26.9062 16.3854 26.9167 19.427 26.9062 22.4688C27.4479 22.4688 27.9896 22.4688 28.5312 22.4688C28.5312 21.6146 28.5312 20.7604 28.5312 19.9062C29.1771 19.9062 29.8229 19.9062 30.4688 19.9062C30.4688 20.7604 30.4688 21.6146 30.4688 22.4688C30.9688 22.4688 31.4688 22.4688 31.9688 22.4688ZM15.5312 7.59375C13.7694 8.09506 12.9882 9.26169 13.1875 11.0938C13.7301 12.6987 14.8446 13.4174 16.5312 13.25C18.2406 12.7171 18.9802 11.5608 18.75 9.78125C18.2266 8.24794 17.1537 7.51875 15.5312 7.59375ZM3.46875 24.4062C4.03125 24.4062 4.59375 24.4062 5.15625 24.4062C5.15625 25.0104 5.15625 25.6146 5.15625 26.2188C4.59375 26.2188 4.03125 26.2188 3.46875 26.2188C3.46875 25.6146 3.46875 25.0104 3.46875 24.4062ZM26.9062 24.4062C27.4479 24.4062 27.9896 24.4062 28.5312 24.4062C28.5312 25.0104 28.5312 25.6146 28.5312 26.2188C27.9896 26.2188 27.4479 26.2188 26.9062 26.2188C26.9062 25.6146 26.9062 25.0104 26.9062 24.4062Z" fill="white"/>
<path opacity="0.927" fill-rule="evenodd" clip-rule="evenodd" d="M15.6565 9.40623C16.725 9.36017 17.1521 9.86017 16.9377 10.9062C16.5291 11.4924 15.9978 11.6279 15.344 11.3125C14.7931 10.7675 14.7722 10.205 15.2815 9.62498C15.4206 9.56617 15.5456 9.49323 15.6565 9.40623Z" fill="white"/>
<path opacity="0.979" fill-rule="evenodd" clip-rule="evenodd" d="M11.5938 18.6562C12.7396 18.6562 13.8854 18.6562 15.0312 18.6562C15.0312 21.8229 15.0312 24.9896 15.0312 28.1562C13.8854 28.1562 12.7396 28.1562 11.5938 28.1562C11.5938 24.9896 11.5938 21.8229 11.5938 18.6562Z" fill="white"/>
<path opacity="0.978" fill-rule="evenodd" clip-rule="evenodd" d="M16.9062 18.6562C18.0521 18.6562 19.1979 18.6562 20.3438 18.6562C20.3438 21.8229 20.3438 24.9896 20.3438 28.1562C19.1979 28.1562 18.0521 28.1562 16.9062 28.1562C16.9062 24.9896 16.9062 21.8229 16.9062 18.6562Z" fill="white"/>
<path fill-rule="evenodd" clip-rule="evenodd" d="M-0.03125 30.0938C10.6354 30.0938 21.3021 30.0938 31.9688 30.0938C31.9688 30.7188 31.9688 31.3438 31.9688 31.9688C21.3021 31.9688 10.6354 31.9688 -0.03125 31.9688C-0.03125 31.3438 -0.03125 30.7188 -0.03125 30.0938Z" fill="white"/>
</g>
<defs>
<clipPath id="clip0_141_7599">
<rect width="32" height="32" fill="white"/>
</clipPath>
</defs>
</svg>
