<svg width="34" height="34" viewBox="0 0 34 34" fill="none" xmlns="http://www.w3.org/2000/svg">
<g clip-path="url(#clip0_141_7318)">
<path d="M10.977 1.49414C9.86797 1.79297 9.00469 2.65625 8.67266 3.77852C8.59961 4.01758 8.56641 4.40273 8.56641 4.89414V5.64453H12.75C15.9574 5.64453 16.9336 5.62461 16.9336 5.56484C16.9336 5.51836 16.482 4.56211 15.9242 3.43984L14.9148 1.39453L13.1219 1.40117C11.7938 1.40117 11.2293 1.42773 10.977 1.49414Z" fill="white"/>
<path d="M18.0758 3.43984C17.518 4.56211 17.0664 5.51836 17.0664 5.56484C17.0664 5.62461 18.0426 5.64453 21.25 5.64453H25.4336V4.89414C25.4336 4.05742 25.3406 3.6457 25.0219 3.04141C24.7762 2.5832 24.1852 2.00547 23.7203 1.76641C23.0629 1.43437 22.7641 1.39453 20.8516 1.39453H19.0852L18.0758 3.43984Z" fill="white"/>
<path d="M14.6625 8.41367L12.3516 11.1828V12.0992V13.0156H17H21.6484V12.0992V11.1828L19.3508 8.42695C18.0824 6.91289 17.0332 5.67109 17.0066 5.66445C16.9867 5.65781 15.9309 6.89297 14.6625 8.41367Z" fill="white"/>
<path d="M0 9.94102C0 12.418 0.0199219 12.6039 0.405078 13.3609C0.869922 14.284 2.07852 15.0676 3.03477 15.0742C3.22734 15.0742 3.25391 15.0941 3.28711 15.3066C3.30703 15.4328 3.34023 15.652 3.36016 15.7848C3.46641 16.4488 4.04414 17.332 4.66172 17.7504C5.08672 18.0426 5.81719 18.3281 6.14258 18.3281C6.48789 18.3281 6.57422 18.3879 6.57422 18.6203C6.57422 18.7332 6.6207 19.0055 6.67383 19.2246C7.05234 20.6656 8.38711 21.6484 9.96758 21.6484H10.3594V16.1699V10.6914L10.2133 10.625C10.0938 10.5719 6.26211 9.47617 0.119531 7.72305C0.00664063 7.68984 0 7.8293 0 9.94102Z" fill="white"/>
<path d="M28.8402 9.16406C26.0578 9.96094 23.7469 10.6316 23.707 10.6582C23.6605 10.6848 23.6406 12.4578 23.6406 16.1766V21.6484H24.0324C25.5996 21.6484 26.9543 20.6523 27.3262 19.2246C27.3793 19.0055 27.4258 18.7332 27.4258 18.6137C27.4258 18.441 27.459 18.3945 27.5785 18.368C27.6582 18.3547 27.9039 18.3082 28.123 18.2684C29.0727 18.0957 29.9426 17.4184 30.3742 16.5219C30.5004 16.2563 30.6199 15.9242 30.6398 15.7848C30.7594 15.0211 30.7328 15.0742 30.9652 15.0742C31.616 15.0676 32.4527 14.6891 33.0105 14.1445C33.4488 13.7129 33.8207 13.0289 33.9336 12.4246C34.0066 12.0129 34.0266 7.70313 33.9535 7.70977C33.9203 7.70977 31.6227 8.36719 28.8402 9.16406Z" fill="white"/>
<path d="M12.3516 19.3176V23.6207L11.9066 23.6539C10.4324 23.7668 9.01797 24.8691 8.49336 26.3102L8.34727 26.6953H7.36445H6.375V27.6914V28.6875H8.29414H10.2133L10.2398 27.9371C10.2598 27.366 10.2996 27.1203 10.4059 26.8879C10.698 26.2437 11.3488 25.7391 12.0129 25.6395L12.3184 25.5996L12.3383 24.6168L12.3582 23.6406H13.6332H14.9082L15.9508 24.6832L17 25.7324L18.0492 24.6832L19.0918 23.6406H20.3668H21.6418L21.6617 24.6168L21.6816 25.5996L21.9871 25.6395C22.6512 25.7391 23.302 26.2437 23.5941 26.8879C23.7004 27.1203 23.7402 27.366 23.7602 27.9371L23.7867 28.6875H25.7059H27.625V27.6914V26.6953H26.6355H25.6527L25.5066 26.3102C24.982 24.8625 23.5941 23.7867 22.1 23.6605L21.6484 23.6207V19.3176V15.0078H17H12.3516V19.3176ZM17.9961 19.2578V20.2539H17H16.0039V19.2578V18.2617H17H17.9961V19.2578Z" fill="white"/>
<path d="M14.5563 28.1761L12.1392 30.5933L12.531 30.9386C14.045 32.2933 16.2896 32.8843 18.3415 32.4726C19.5435 32.2269 20.679 31.6691 21.4892 30.932L21.861 30.5933L19.4438 28.1761C18.1224 26.848 17.02 25.7656 17.0001 25.7656C16.9802 25.7656 15.8778 26.8547 14.5563 28.1761Z" fill="white"/>
</g>
<defs>
<clipPath id="clip0_141_7318">
<rect width="34" height="34" fill="white"/>
</clipPath>
</defs>
</svg>
