<svg width="38" height="38" viewBox="0 0 38 38" fill="none" xmlns="http://www.w3.org/2000/svg">
<path opacity="0.985" fill-rule="evenodd" clip-rule="evenodd" d="M17.4786 7.08767C21.9005 6.76513 25.7599 8.06395 29.0567 10.9842C30.7321 12.5344 32.1546 14.2786 33.3243 16.2166C34.1736 17.8645 34.2478 19.5468 33.5469 21.2635C31.8246 24.4208 29.4373 26.9566 26.3848 28.8709C23.2619 30.6567 19.922 31.2504 16.3653 30.6521C13.5504 30.1105 11.0765 28.8983 8.94343 27.0154C7.04818 25.3113 5.50195 23.3445 4.30476 21.115C3.66186 19.3756 3.78556 17.6933 4.67586 16.0681C6.15059 13.6036 8.04316 11.5131 10.3536 9.79666C12.507 8.29974 14.882 7.39672 17.4786 7.08767ZM19.0372 11.8377C22.7904 12.1769 25.0911 14.1808 25.9395 17.8494C26.2872 21.3451 24.9017 23.8809 21.7833 25.4568C18.549 26.6367 15.7658 25.9564 13.4337 23.4158C11.4132 20.5953 11.339 17.7255 13.211 14.8064C14.6988 12.9183 16.6409 11.9287 19.0372 11.8377Z" fill="white"/>
<path opacity="0.972" fill-rule="evenodd" clip-rule="evenodd" d="M18.5176 14.9552C19.5494 14.8915 20.4894 15.1512 21.3379 15.7345C21.4497 15.7966 21.4868 15.8833 21.4492 15.9943C20.6053 16.5194 20.3826 17.2368 20.7812 18.1466C21.3639 18.9037 22.0937 19.1016 22.9707 18.7404C22.7786 21.5674 21.2695 22.9653 18.4434 22.9337C16.2664 22.501 15.1037 21.1774 14.9551 18.963C15.1263 16.7141 16.3138 15.3782 18.5176 14.9552Z" fill="white"/>
</svg>
