<svg width="31" height="31" viewBox="0 0 31 31" fill="none" xmlns="http://www.w3.org/2000/svg">
<g clip-path="url(#clip0_141_7276)">
<path d="M6.43022 0.121094C5.77026 0.29668 5.29799 0.569141 4.78335 1.08984C4.25659 1.61055 3.99018 2.07676 3.8146 2.76094C3.43315 4.23828 4.06284 5.84277 5.34038 6.70254C5.98823 7.13242 6.53315 7.2959 7.32631 7.2959C7.83491 7.2959 8.05288 7.26562 8.4101 7.15059C10.2205 6.55723 11.3103 4.58945 10.838 2.76094C10.7714 2.50059 10.6322 2.1252 10.5232 1.91934C10.2689 1.42891 9.53022 0.690235 9.03979 0.435938C8.24057 0.0181642 7.27788 -0.0968747 6.43022 0.121094Z" fill="white"/>
<path d="M22.7779 0.121094C22.1179 0.29668 21.6457 0.569141 21.131 1.08984C20.6042 1.61055 20.3378 2.07676 20.1623 2.76094C19.7808 4.23828 20.4105 5.84277 21.688 6.70254C22.3359 7.13242 22.8808 7.2959 23.674 7.2959C24.1826 7.2959 24.4005 7.26562 24.7578 7.15059C26.5681 6.55723 27.658 4.58945 27.1857 2.76094C27.1191 2.50059 26.9798 2.1252 26.8708 1.91934C26.6165 1.42891 25.8779 0.690235 25.3874 0.435938C24.5882 0.0181642 23.6255 -0.0968747 22.7779 0.121094Z" fill="white"/>
<path d="M8.17979 7.51347C6.63584 7.69511 5.11006 8.43984 3.996 9.56601C2.52471 11.0434 1.74365 13.0414 1.74365 15.3482C1.74365 17.534 2.46416 19.3504 4.17764 21.4937C5.02529 22.5473 8.1919 25.6291 8.71865 25.9137C8.79131 25.9561 9.01533 25.9863 9.20908 25.9863C10.2444 25.9863 10.9589 25.3021 11.0073 24.2607C11.0437 23.5705 10.8499 23.2072 10.0991 22.523C9.11221 21.6209 7.81045 20.3312 7.2958 19.7379C6.02432 18.2727 5.49756 17.2979 5.39463 16.2383L5.35225 15.8023L6.26045 15.8145L7.17471 15.8326L7.21709 16.1354C7.28369 16.5955 7.68936 17.3402 8.26455 18.0547C8.76104 18.6783 10.414 20.3736 11.0558 20.9246L11.3585 21.185L11.9034 20.9246C12.5271 20.6219 13.1991 20.3918 13.9257 20.2404C14.6462 20.0891 16.3536 20.0891 17.0741 20.2404C17.7946 20.3979 18.5999 20.6643 19.163 20.9428L19.6474 21.1789L19.8896 20.9791C20.4163 20.5432 22.2569 18.6541 22.7413 18.0486C23.3165 17.3402 23.7161 16.5955 23.7827 16.1354L23.8251 15.8326L24.7394 15.8145L25.6476 15.8023L25.6052 16.2383C25.5022 17.2857 24.9513 18.3029 23.704 19.7379C23.1894 20.3252 21.7362 21.7723 20.8401 22.5836C20.1983 23.1588 19.9804 23.5645 19.9804 24.1578C19.9804 24.733 20.1196 25.0963 20.495 25.4656C20.8946 25.8652 21.27 25.9984 21.8815 25.9621C22.1358 25.9439 22.4022 25.8834 22.5354 25.8168C22.8503 25.6533 24.703 23.9035 25.6597 22.8742C27.0462 21.3666 27.797 20.3434 28.3843 19.1566C28.9897 17.9457 29.2562 16.7953 29.2562 15.3785C29.2562 13.9738 29.0079 12.8053 28.4812 11.6912C27.3368 9.26933 25.2298 7.76777 22.6081 7.50137C21.3548 7.37422 20.1802 7.58613 19.0419 8.14316C17.8188 8.74258 16.8077 9.65078 15.9722 10.898C15.736 11.2492 15.5241 11.5338 15.4999 11.5338C15.4757 11.5338 15.2577 11.2311 15.0095 10.8678C13.3747 8.42168 10.8923 7.19863 8.17979 7.51347ZM16.2567 12.8658C16.947 13.0111 17.5222 13.332 18.0429 13.8588C18.5636 14.3916 18.8421 14.8639 19.0116 15.5359C19.2296 16.3896 19.1206 17.316 18.6968 18.1213C18.4425 18.6117 17.7038 19.3504 17.2134 19.6047C16.4081 20.0285 15.4817 20.1375 14.628 19.9195C13.956 19.75 13.4837 19.4775 12.9569 18.9508C12.4302 18.4301 12.1638 17.9699 11.9882 17.2797C11.7702 16.426 11.8792 15.4996 12.303 14.6943C12.5876 14.1494 13.3021 13.4531 13.8712 13.1746C14.6401 12.7932 15.4333 12.6902 16.2567 12.8658Z" fill="white"/>
<path d="M14.9128 14.7008C13.3143 15.2699 13.2901 17.5101 14.8764 18.1035C15.7422 18.4244 16.711 18.0369 17.1167 17.2074C17.3346 16.7593 17.3528 16.1054 17.159 15.6756C16.7655 14.8279 15.7725 14.392 14.9128 14.7008Z" fill="white"/>
<path d="M14.5312 21.9602C13.8834 22.0692 12.5332 22.5293 12.5332 22.6383C12.5332 22.6625 12.5938 22.8442 12.6604 23.044C12.842 23.5465 12.8844 24.5395 12.7512 25.0662C12.5271 25.9684 11.8732 26.8403 11.068 27.3186C10.8439 27.4518 10.6562 27.5668 10.6562 27.5789C10.6562 27.585 11.183 28.0391 11.8187 28.5901C12.4605 29.141 13.2295 29.8071 13.5322 30.0614C14.4949 30.8969 15.385 31.1633 16.3779 30.909C17.0258 30.7455 17.3346 30.5276 18.9814 29.0684L20.5859 27.6455L20.0773 27.3791C19.1752 26.9129 18.4971 26.0532 18.2488 25.0662C18.1156 24.5395 18.158 23.5465 18.3396 23.044C18.4062 22.8442 18.4668 22.6686 18.4668 22.6444C18.4668 22.5233 17.3951 22.1418 16.6867 22.0086C16.2508 21.9239 14.9187 21.8936 14.5312 21.9602Z" fill="white"/>
</g>
<defs>
<clipPath id="clip0_141_7276">
<rect width="31" height="31" fill="white"/>
</clipPath>
</defs>
</svg>
