<svg width="24" height="24" viewBox="0 0 24 24" fill="none" xmlns="http://www.w3.org/2000/svg">
<path d="M5.75638 3.3281C4.49076 3.64216 3.48295 4.61716 3.21107 5.78904C3.10326 6.24841 3.11263 7.00779 3.22982 7.46716C3.53451 8.63904 4.52357 9.61404 5.71888 9.92341C6.13607 10.0312 6.90951 10.0312 7.33607 9.92341C7.82826 9.79685 7.8142 9.82029 7.65013 9.39373C7.21888 8.26404 7.22826 7.08748 7.67357 5.95779C7.86576 5.47029 8.19857 4.94529 8.56888 4.54685L8.90638 4.18123L8.66263 3.9656C7.9267 3.32341 6.79232 3.07498 5.75638 3.3281Z" fill="white"/>
<path d="M16.6029 3.32813C16.1857 3.43594 15.6139 3.73125 15.3139 3.98907L15.0889 4.18125L15.3607 4.47188C15.7311 4.85625 15.942 5.15625 16.1623 5.60157C16.5232 6.32813 16.6545 6.90469 16.6545 7.71094C16.6545 8.34844 16.5701 8.82188 16.3498 9.39375C16.1857 9.82032 16.1717 9.79688 16.6639 9.92344C16.8842 9.97969 17.1514 10.0031 17.4842 9.99844C19.1014 9.97969 20.3529 9.00938 20.7467 7.47657C20.8592 7.03125 20.8592 6.1875 20.7467 5.74219C20.5029 4.78125 19.8701 3.99844 18.9842 3.55782C18.342 3.23907 17.3201 3.14063 16.6029 3.32813Z" fill="white"/>
<path d="M11.6115 4.12964C9.6568 4.38276 8.16148 6.24839 8.43336 8.10464C8.65836 9.63276 9.66148 10.7671 11.1334 11.1609C11.6677 11.3015 12.4084 11.3015 12.9099 11.1609C14.0818 10.8328 14.9818 9.99839 15.3474 8.9062C15.7552 7.68276 15.5724 6.42183 14.8552 5.50776C14.438 4.97808 13.6787 4.44839 13.0552 4.25151C12.8443 4.1812 12.1037 4.0687 11.9771 4.08276C11.9537 4.08745 11.7849 4.1062 11.6115 4.12964Z" fill="white"/>
<path d="M4.68301 10.5938C3.69864 10.7156 2.83614 11.1328 2.09551 11.8547C1.5002 12.4313 1.0877 13.1391 0.886139 13.9313C0.801764 14.2594 0.783014 14.5031 0.764264 15.4406C0.736139 16.7156 0.768951 16.9594 1.0127 17.475C1.29395 18.0563 1.84239 18.525 2.48458 18.7266C2.68614 18.7922 2.97208 18.8156 3.77364 18.8297L4.80489 18.8531V17.386C4.80489 15.9422 4.80958 15.9047 4.93145 15.4172C5.08614 14.8031 5.34864 14.1844 5.67676 13.6594C5.98145 13.1719 6.62364 12.4781 7.10645 12.1125C7.5002 11.8172 8.17051 11.4563 8.61114 11.2969L8.90176 11.1938L8.60176 10.8797L8.29708 10.5703L6.64708 10.5656C5.7377 10.561 4.85176 10.575 4.68301 10.5938Z" fill="white"/>
<path d="M15.7217 10.6172C15.642 10.6594 15.4686 10.8047 15.3326 10.9406L15.0889 11.1891L15.3842 11.2969C16.1201 11.5641 16.7904 11.9766 17.3811 12.5344C18.2342 13.3406 18.7732 14.2641 19.0686 15.4219C19.1904 15.9047 19.1951 15.9422 19.1951 17.386V18.8531L20.2264 18.8297C21.0279 18.8156 21.3139 18.7922 21.5154 18.7266C22.1529 18.5297 22.7107 18.0516 22.9873 17.475C23.2311 16.9547 23.2639 16.7156 23.2357 15.4406C23.217 14.5031 23.1982 14.2594 23.1139 13.9313C22.9076 13.1297 22.5045 12.436 21.8811 11.8313C21.2717 11.236 20.7186 10.9219 19.8748 10.6969C19.4436 10.5844 19.3779 10.5797 17.6482 10.561C16.1014 10.5469 15.8482 10.5516 15.7217 10.6172Z" fill="white"/>
<path d="M9.86707 12.0984C9.16863 12.2016 8.30613 12.5672 7.74832 12.9984C7.10613 13.4953 6.52488 14.2359 6.23894 14.9297C5.92957 15.6656 5.89676 15.8906 5.86863 17.2219C5.85457 18.0469 5.86863 18.5203 5.90613 18.7219C6.08894 19.6687 6.87176 20.4844 7.82801 20.7234C8.03426 20.775 8.84519 20.7891 12.0468 20.7891H16.0077L16.378 20.6578C17.0671 20.4141 17.5827 19.9641 17.878 19.3453C18.1171 18.8484 18.1546 18.5484 18.1311 17.2172C18.1077 16.1484 18.0983 16.0172 17.9858 15.5906C17.5358 13.9125 16.2796 12.6562 14.5827 12.1969C14.1327 12.075 14.128 12.075 12.1405 12.0656C11.0436 12.0609 10.0218 12.075 9.86707 12.0984Z" fill="white"/>
</svg>
