<svg width="53" height="54" viewBox="0 0 53 54" fill="none" xmlns="http://www.w3.org/2000/svg">
<g clip-path="url(#clip0_141_8218)">
<path d="M12.2007 4.01675C9.11862 4.37633 6.52964 5.66055 4.37217 7.93104C2.16332 10.2426 0.879104 13.1193 0.498977 16.602C0.0777546 20.5163 1.21814 24.3895 4.04341 28.6223C6.45773 32.2489 10.9165 36.8926 17.7177 42.8617C23.3272 47.7828 26.2243 50.2382 26.4915 50.2998C26.6456 50.3306 26.8921 50.3204 27.036 50.2587C27.4469 50.1046 36.3029 42.4096 39.7035 39.2453C48.4053 31.1599 52.0833 25.8176 52.8538 20.1465C53.2545 17.239 52.7819 14.2391 51.5182 11.5577C49.6895 7.68447 46.443 5.06467 42.426 4.21195C41.039 3.92429 38.6453 3.90374 37.2069 4.16058C35.4707 4.47907 33.6214 5.17768 32.0495 6.11259C30.4366 7.08859 28.5257 8.86594 27.3853 10.4584C27.0462 10.931 26.7483 11.3111 26.7072 11.3111C26.6661 11.3111 26.3682 10.931 26.0291 10.4584C24.108 7.76666 21.3032 5.70164 18.2109 4.67427C16.3924 4.0784 13.9781 3.81128 12.2007 4.01675ZM16.1664 6.23587C18.3547 6.6571 20.3272 7.65365 22.2073 9.29744C23.471 10.407 24.4264 11.5885 25.4435 13.3042C25.9983 14.2494 26.2552 14.4857 26.7072 14.4857C27.1593 14.4857 27.4161 14.2494 27.9709 13.3042C29.3065 11.044 30.8886 9.31799 32.7482 8.09542C36.4775 5.64 41.2034 5.31124 44.8917 7.26324C47.4293 8.59883 49.5251 11.27 50.3881 14.2699C52.0114 19.9205 50.1313 25.2422 44.1622 31.9099C42.8986 33.3174 39.6007 36.605 37.7001 38.3412C35.183 40.6425 26.8408 47.8855 26.7072 47.8855C26.512 47.8855 16.7931 39.348 14.2144 36.9132C4.96804 28.1908 1.69073 22.3451 2.61536 16.1911C3.34479 11.3111 6.3139 7.68447 10.6289 6.41053C12.1391 5.96876 14.3582 5.89684 16.1664 6.23587Z" fill="white"/>
<path d="M43.3406 9.55427C42.8166 10.0782 42.9604 10.8899 43.6282 11.1672C44.0597 11.3522 44.594 11.2186 44.8405 10.8693C45.2823 10.2323 44.7892 9.25634 44.0186 9.25634C43.7412 9.25634 43.5666 9.33853 43.3406 9.55427Z" fill="white"/>
<path d="M46.2583 12.4927C45.6213 12.7701 45.5597 13.294 46.0322 14.3933C47.6658 18.2459 46.8233 22.0678 43.2275 27.0094C42.3645 28.2012 42.2207 28.458 42.2207 28.797C42.2207 29.4957 42.9193 29.9682 43.5768 29.6909C44.1111 29.4751 46.0117 26.8039 47.0904 24.7595C48.95 21.215 49.3609 17.8761 48.313 14.6501C47.9226 13.4481 47.5117 12.6776 47.1521 12.4927C46.7925 12.3077 46.6795 12.3077 46.2583 12.4927Z" fill="white"/>
<path d="M23.1218 17.0028C22.6286 17.2802 22.6081 17.424 22.5978 20.6294V23.6396H19.6184C16.3411 23.6396 16.1665 23.6705 15.9302 24.2355C15.848 24.441 15.8172 25.4684 15.8377 27.8827L15.8685 31.2422L16.1562 31.5196L16.4336 31.8072L19.5157 31.8381L22.5875 31.8689L22.6184 34.9407L22.6492 38.0228L22.9368 38.3002L23.2142 38.5879H26.7073H30.2004L30.4777 38.3002L30.7654 38.0228L30.7962 34.9407L30.827 31.8689L33.8989 31.8381L36.981 31.8072L37.2584 31.5196L37.5461 31.2422L37.5769 27.8827C37.5974 25.4684 37.5666 24.441 37.4844 24.2355C37.2481 23.6705 37.0735 23.6396 33.7962 23.6396H30.8168V20.6603C30.8168 17.4549 30.786 17.2597 30.2928 17.0028C29.8921 16.7973 23.4916 16.7973 23.1218 17.0028ZM28.7826 21.9958L28.8134 25.078L29.1011 25.3553L29.3785 25.643L32.4606 25.6738L35.5427 25.7047V27.7491V29.8039H32.5633C29.3168 29.8039 29.1319 29.8347 28.8853 30.3689C28.8031 30.5538 28.762 31.5196 28.762 33.6051V36.5845H26.7073H24.6525V33.6051C24.6525 31.5196 24.6115 30.5538 24.5293 30.3689C24.2827 29.8347 24.0978 29.8039 20.8513 29.8039H17.8719V27.7491V25.7047L20.954 25.6738L24.0361 25.643L24.3135 25.3553L24.6012 25.078L24.632 21.9958L24.6628 18.9137H26.7073H28.7518L28.7826 21.9958Z" fill="white"/>
</g>
<defs>
<clipPath id="clip0_141_8218">
<rect width="52.6014" height="52.6014" fill="white" transform="translate(0.406738 0.831787)"/>
</clipPath>
</defs>
</svg>
