<svg width="31" height="32" viewBox="0 0 31 32" fill="none" xmlns="http://www.w3.org/2000/svg">
<path d="M7.41667 0.0866146C5.32175 0.440149 3.61432 1.56278 2.42761 3.36766C2.08854 3.88246 1.63444 4.92446 1.47702 5.5633C1.24089 6.49986 1.19245 7.90159 1.36198 8.81334L1.40436 9.03662L1.93112 9.00561C3.12995 8.93739 4.41354 9.53901 5.15222 10.519C5.29753 10.7113 5.81218 11.6726 6.29655 12.6526L7.17448 14.4327L7.41667 14.321C8.38542 13.8683 9.61452 13.9675 10.5106 14.5629C10.9768 14.8792 14.1495 18.1665 14.652 18.855C14.8579 19.1465 15.1303 19.5682 15.2514 19.7977C15.3725 20.0272 15.4815 20.2195 15.4997 20.2195C15.5178 20.2195 15.6268 20.0272 15.7479 19.7977C16.1778 18.9852 16.7288 18.3278 18.521 16.4857C20.2829 14.6684 20.3192 14.6374 20.8339 14.3893C21.7542 13.9551 22.6018 13.9179 23.4858 14.29L23.8309 14.4327L24.6907 12.6836C25.1569 11.7222 25.6534 10.7857 25.7866 10.5996C26.5374 9.57003 27.8391 8.93739 29.0743 9.00561L29.601 9.03662L29.6434 8.78233C29.7282 8.29234 29.7585 7.4054 29.7161 6.78517C29.6253 5.5571 29.1712 4.26081 28.4446 3.18159C27.7907 2.19542 26.6524 1.21544 25.6049 0.719255C24.5272 0.210663 23.728 0.0307941 22.4928 0.0307941C21.1911 0.0307941 20.3737 0.229269 19.2233 0.806089C18.3757 1.24026 17.9337 1.59379 16.638 2.90869L15.4997 4.05613L14.3069 2.84667C12.7993 1.32709 12.0727 0.818495 10.8073 0.384329C9.83854 0.0494003 8.37331 -0.074646 7.41667 0.0866146Z" fill="white"/>
<path d="M1.47118 11.0276C0.690123 11.3129 0.217857 11.8835 0.0483259 12.7518C-0.012221 13.0681 0.0301618 13.341 0.671959 16.9074L1.36219 20.7219L4.43192 23.792L7.5077 26.8622V29.3121V31.7559H11.0497H14.5917V27.7615C14.5917 25.2558 14.5675 23.5873 14.5251 23.2834C14.3858 22.2538 13.9741 21.1498 13.3989 20.2567C13.0477 19.7233 9.82665 16.3058 9.46942 16.0887C8.67626 15.6111 7.61063 16.0515 7.35028 16.9632C7.13837 17.7261 7.30184 18.0362 8.64598 19.4318L9.71161 20.5296L9.08192 21.1808L8.44618 21.8321L7.33817 20.7032C6.7327 20.0768 6.13329 19.4194 6.01219 19.2333C5.46727 18.396 5.32801 17.2671 5.64891 16.2996L5.81239 15.8158L4.83758 13.8186C4.16551 12.4355 3.79618 11.7408 3.64481 11.5796C3.112 11.0152 2.16141 10.7733 1.47118 11.0276Z" fill="white"/>
<path d="M28.2936 11.0028C27.9424 11.1206 27.5549 11.3625 27.3248 11.6106C27.2098 11.7346 26.7436 12.6154 26.1562 13.8248L25.1875 15.8282L25.3449 16.3058C25.5629 16.926 25.575 17.8192 25.3813 18.3898C25.1451 19.0906 24.9514 19.3511 23.7404 20.6102L22.5598 21.8321L21.924 21.187L21.2883 20.5358L22.3479 19.4318C22.9352 18.8239 23.468 18.2161 23.5346 18.0797C23.7283 17.6951 23.7586 17.3602 23.6436 16.9632C23.3893 16.0515 22.3236 15.6111 21.5305 16.0887C21.1732 16.3058 17.9521 19.7233 17.601 20.2567C17.0258 21.1498 16.6141 22.2538 16.4748 23.2834C16.4324 23.5873 16.4082 25.2558 16.4082 27.7615V31.7559H19.9502H23.4922V29.3121V26.8622L26.568 23.792L29.6377 20.7219L30.3279 16.9074C30.9879 13.2666 31.0121 13.0743 30.9455 12.7332C30.7396 11.6788 29.9768 10.9841 28.9777 10.9345C28.7234 10.9221 28.4449 10.9531 28.2936 11.0028Z" fill="white"/>
</svg>
