<svg width="36" height="36" viewBox="0 0 36 36" fill="none" xmlns="http://www.w3.org/2000/svg">
<path d="M11.918 4.59844C11.6578 4.71797 11.4258 4.96406 11.3273 5.22422C11.2711 5.36484 11.25 9.40781 11.25 18.4992V31.5703H12.375H13.5V27.4008C13.5 23.9344 13.5211 23.168 13.6055 22.8305C13.9359 21.5578 14.9977 20.5594 16.2703 20.3273C16.8117 20.2289 19.1883 20.2289 19.7297 20.3273C20.9812 20.5523 22.05 21.5437 22.3734 22.7742C22.4789 23.1891 22.493 23.7023 22.493 27.4008L22.5 31.5703H23.625H24.75L24.7359 18.3937L24.7148 5.21016L24.5672 5.02031C24.4898 4.91484 24.3352 4.76015 24.2297 4.68281C24.0398 4.53515 23.9766 4.53515 18.0844 4.52109C13.2258 4.50703 12.0867 4.52109 11.918 4.59844ZM18.6187 9.18984C19.0266 9.49219 19.0898 9.65391 19.1109 10.4766L19.1391 11.2359L19.8984 11.2641C20.5383 11.2781 20.693 11.3062 20.8547 11.4328C21.2273 11.707 21.3398 11.932 21.3398 12.375C21.3398 12.818 21.2273 13.043 20.8547 13.3172C20.693 13.4437 20.5383 13.4719 19.8984 13.4859L19.1391 13.5141L19.1109 14.2664C19.0898 14.9766 19.0758 15.0398 18.8859 15.2859C18.4078 15.9187 17.55 15.8906 17.0578 15.2297C16.9312 15.068 16.9031 14.9133 16.8891 14.2734L16.8609 13.5141L16.1016 13.4859C15.2789 13.4648 15.1172 13.4016 14.8078 12.9797C14.6039 12.7055 14.6039 12.0445 14.8078 11.7703C15.1172 11.3484 15.2789 11.2852 16.1086 11.2641L16.875 11.2359V10.582C16.875 9.68203 17.0297 9.33047 17.543 9.09844C17.8242 8.96484 18.3797 9.01406 18.6187 9.18984Z" fill="white"/>
<path d="M7.03838 9.1125C5.80791 9.44297 4.80244 10.5047 4.57041 11.7352C4.47197 12.2484 4.47197 28.2445 4.57041 28.7648C4.68994 29.4047 5.07666 30.0938 5.58291 30.5648C6.33525 31.275 6.96807 31.5 8.2126 31.5H9.0001V20.25V9L8.2126 9.00703C7.75557 9.00703 7.25635 9.04922 7.03838 9.1125Z" fill="white"/>
<path d="M27 20.2566V31.5137L27.9703 31.4855C28.7438 31.4574 29.0109 31.4223 29.3344 31.2957C30.1852 30.9652 30.9234 30.2129 31.2891 29.2988L31.4648 28.8629L31.4859 20.4605C31.5 14.5824 31.4789 11.9457 31.4227 11.6855C31.3031 11.0879 30.9164 10.4059 30.4594 9.96992C29.7211 9.2668 28.9828 8.99961 27.7594 8.99961H27V20.2566Z" fill="white"/>
<path d="M16.4109 22.6336C16.2492 22.7039 16.0453 22.8727 15.9539 22.9992L15.7852 23.2383L15.7641 27.4008L15.75 31.5703H18H20.25V27.4711V23.3789L20.0883 23.0977C19.9898 22.9148 19.8281 22.7602 19.6172 22.6547C19.3289 22.5141 19.2164 22.5 18 22.5C16.882 22.5 16.657 22.5211 16.4109 22.6336Z" fill="white"/>
</svg>
