<svg width="38" height="38" viewBox="0 0 38 38" fill="none" xmlns="http://www.w3.org/2000/svg">
<path opacity="0.98" fill-rule="evenodd" clip-rule="evenodd" d="M17.4784 1.15042C23.6871 0.809128 28.3753 3.28308 31.5429 8.57229C33.3047 11.9797 33.7005 15.5422 32.7304 19.2598C32.1261 21.3338 31.2602 23.2882 30.1327 25.1231C27.206 29.5593 23.6311 33.4063 19.4081 36.6641C18.9619 36.8557 18.5661 36.7815 18.2206 36.4414C13.8569 33.0683 10.2325 29.0481 7.34754 24.3809C5.96402 22.0363 5.09813 19.5129 4.74988 16.8106C4.39478 10.6296 6.85638 5.96622 12.1346 2.82034C13.824 1.94082 15.6053 1.38417 17.4784 1.15042ZM18.7401 4.71291C23.196 4.86755 26.4739 6.8962 28.5741 10.7989C30.5327 15.6175 29.6544 19.8356 25.9393 23.4531C22.3885 26.2541 18.5291 26.7736 14.3612 25.0117C9.8614 22.5371 7.89461 18.7396 8.46082 13.6192C9.18037 10.063 11.1472 7.453 14.3612 5.78909C15.7648 5.15984 17.2244 4.80111 18.7401 4.71291Z" fill="white"/>
<path opacity="0.998" fill-rule="evenodd" clip-rule="evenodd" d="M16.8848 8.2754C18.2704 8.26301 19.6558 8.2754 21.041 8.31251C21.109 8.34027 21.1709 8.37738 21.2266 8.42384C21.3362 9.95089 21.3733 11.4847 21.3379 13.0254C22.8225 13.013 24.3069 13.0254 25.791 13.0625C25.9271 13.0996 26.0137 13.1862 26.0508 13.3223C26.1003 14.7077 26.1003 16.0931 26.0508 17.4785C26.023 17.5465 25.9859 17.6084 25.9395 17.6641C24.4124 17.7737 22.8786 17.8108 21.3379 17.7754C21.3503 19.26 21.3379 20.7444 21.3008 22.2285C21.2637 22.3646 21.1771 22.4512 21.041 22.4883C19.6556 22.5378 18.2702 22.5378 16.8848 22.4883C16.8168 22.4605 16.7549 22.4234 16.6992 22.377C16.5896 20.8499 16.5525 19.3161 16.5879 17.7754C15.1033 17.7878 13.6189 17.7754 12.1348 17.7383C11.9987 17.7012 11.9121 17.6146 11.875 17.4785C11.8255 16.0931 11.8255 14.7077 11.875 13.3223C11.9028 13.2543 11.9399 13.1924 11.9863 13.1367C13.5134 13.0271 15.0472 12.99 16.5879 13.0254C16.5755 11.5408 16.5879 10.0564 16.625 8.57228C16.6762 8.43497 16.7628 8.33596 16.8848 8.2754Z" fill="white"/>
</svg>
