<svg width="21" height="21" viewBox="0 0 21 21" fill="none" xmlns="http://www.w3.org/2000/svg">
<g clip-path="url(#clip0_205_232)">
<path opacity="0.991" fill-rule="evenodd" clip-rule="evenodd" d="M7.93676 -0.0205078C8.25123 -0.0205078 8.56566 -0.0205078 8.88012 -0.0205078C9.21297 0.0450618 9.52739 0.168109 9.82348 0.348633C9.8645 3.34265 9.87816 6.33679 9.8645 9.33105C9.05407 9.12881 8.62341 8.6093 8.57251 7.77246C8.33195 7.37272 8.01063 7.2975 7.60864 7.54688C7.46976 7.69675 7.41505 7.87447 7.44458 8.08008C7.54888 9.0679 8.04107 9.79248 8.92114 10.2539C9.224 10.3936 9.53842 10.4961 9.8645 10.5615C9.8645 12.2295 9.8645 13.8974 9.8645 15.5654C9.23544 15.5723 8.60655 15.5654 7.97778 15.5449C6.80272 15.2791 6.06444 14.5613 5.76294 13.3916C3.97406 12.7137 3.16058 11.4149 3.32251 9.49512C3.43054 8.8554 3.68347 8.28118 4.0813 7.77246C3.25765 6.68583 3.07308 5.49638 3.52758 4.2041C3.96563 3.18823 4.71076 2.50464 5.76294 2.15332C6.06711 1.00149 6.79173 0.276877 7.93676 -0.0205078Z" fill="white"/>
<path opacity="0.991" fill-rule="evenodd" clip-rule="evenodd" d="M12.0793 -0.0205078C12.3938 -0.0205078 12.7082 -0.0205078 13.0227 -0.0205078C14.1677 0.276877 14.8924 1.00149 15.1965 2.15332C16.9854 2.83121 17.7989 4.13003 17.637 6.0498C17.5289 6.68953 17.276 7.26374 16.8782 7.77246C17.7018 8.85909 17.8864 10.0485 17.4319 11.3408C16.983 12.3433 16.2379 13.0269 15.1965 13.3916C14.895 14.5613 14.1567 15.2791 12.9817 15.5449C12.3529 15.5654 11.724 15.5723 11.095 15.5654C11.095 12.4482 11.095 9.33105 11.095 6.21387C11.9054 6.41612 12.3361 6.93562 12.387 7.77246C12.6275 8.1722 12.9488 8.24742 13.3508 7.99805C13.4897 7.84818 13.5444 7.67045 13.5149 7.46484C13.4106 6.47702 12.9184 5.75244 12.0383 5.29102C11.7355 5.15132 11.421 5.04878 11.095 4.9834C11.0813 3.43823 11.095 1.89331 11.136 0.348633C11.4321 0.168109 11.7465 0.0450618 12.0793 -0.0205078Z" fill="white"/>
<path opacity="0.952" fill-rule="evenodd" clip-rule="evenodd" d="M-0.0205078 2.27632C-0.0205078 2.11225 -0.0205078 1.94819 -0.0205078 1.78413C0.167395 1.44461 0.454502 1.3284 0.84082 1.4355C1.31934 1.74995 1.79785 2.0644 2.27637 2.37886C2.49512 2.69331 2.49512 3.00776 2.27637 3.32222C2.0645 3.4598 1.83207 3.50081 1.5791 3.44526C1.10058 3.13081 0.622072 2.81636 0.143555 2.5019C0.0944762 2.41924 0.0397886 2.34405 -0.0205078 2.27632Z" fill="white"/>
<path opacity="0.952" fill-rule="evenodd" clip-rule="evenodd" d="M20.9796 1.78413C20.9796 1.94819 20.9796 2.11225 20.9796 2.27632C20.9193 2.34405 20.8646 2.41924 20.8155 2.5019C20.337 2.81636 19.8585 3.13081 19.38 3.44526C18.7169 3.5478 18.4366 3.26753 18.5392 2.60444C18.587 2.52925 18.6348 2.45405 18.6827 2.37886C19.1612 2.0644 19.6397 1.74995 20.1183 1.4355C20.5046 1.3284 20.7917 1.44461 20.9796 1.78413Z" fill="white"/>
<path opacity="0.968" fill-rule="evenodd" clip-rule="evenodd" d="M-0.0205078 7.81349C-0.0205078 7.64942 -0.0205078 7.48536 -0.0205078 7.3213C0.0539277 7.1581 0.176975 7.0419 0.348633 6.97267C0.922852 6.94531 1.49707 6.94531 2.07129 6.97267C2.43939 7.18398 2.54193 7.4916 2.37891 7.89552C2.30652 8.01746 2.20398 8.10634 2.07129 8.16212C1.49707 8.18948 0.922852 8.18948 0.348633 8.16212C0.176975 8.09289 0.0539277 7.97669 -0.0205078 7.81349Z" fill="white"/>
<path opacity="0.968" fill-rule="evenodd" clip-rule="evenodd" d="M20.9794 7.3213C20.9794 7.48536 20.9794 7.64942 20.9794 7.81349C20.9049 7.97669 20.7819 8.09289 20.6102 8.16212C20.036 8.18948 19.4618 8.18948 18.8876 8.16212C18.5195 7.95081 18.4169 7.64319 18.5799 7.23927C18.6523 7.11733 18.7549 7.02845 18.8876 6.97267C19.4618 6.94531 20.036 6.94531 20.6102 6.97267C20.7819 7.0419 20.9049 7.1581 20.9794 7.3213Z" fill="white"/>
<path opacity="0.952" fill-rule="evenodd" clip-rule="evenodd" d="M-0.0205078 13.3506C-0.0205078 13.1865 -0.0205078 13.0224 -0.0205078 12.8584C0.0397885 12.7907 0.0944762 12.7154 0.143555 12.6328C0.622072 12.3183 1.10058 12.0039 1.5791 11.6894C2.24219 11.5869 2.52246 11.8671 2.41992 12.5302C2.37207 12.6054 2.32422 12.6806 2.27637 12.7558C1.79785 13.0703 1.31934 13.3847 0.84082 13.6992C0.454502 13.8063 0.167395 13.6901 -0.0205078 13.3506Z" fill="white"/>
<path opacity="0.952" fill-rule="evenodd" clip-rule="evenodd" d="M20.9795 12.8584C20.9795 13.0225 20.9795 13.1866 20.9795 13.3506C20.7916 13.6901 20.5045 13.8063 20.1182 13.6993C19.6396 13.3848 19.1611 13.0704 18.6826 12.7559C18.4639 12.4414 18.4639 12.127 18.6826 11.8125C18.8945 11.675 19.1269 11.6339 19.3799 11.6895C19.8584 12.004 20.3369 12.3184 20.8154 12.6328C20.8645 12.7155 20.9192 12.7907 20.9795 12.8584Z" fill="white"/>
<path opacity="0.993" fill-rule="evenodd" clip-rule="evenodd" d="M7.40294 16.7959C9.45372 16.7959 11.5045 16.7959 13.5553 16.7959C13.5621 17.097 13.5553 17.3978 13.5348 17.6982C13.4322 18.0742 13.193 18.3135 12.817 18.416C11.2584 18.4434 9.69982 18.4434 8.14122 18.416C7.76523 18.3135 7.52599 18.0742 7.42345 17.6982C7.40294 17.3978 7.39613 17.097 7.40294 16.7959Z" fill="white"/>
<path opacity="0.97" fill-rule="evenodd" clip-rule="evenodd" d="M10.9307 20.9795C10.6299 20.9795 10.3291 20.9795 10.0283 20.9795C9.30312 20.801 8.76992 20.3771 8.42871 19.708C9.79588 19.6533 11.1631 19.6533 12.5303 19.708C12.1891 20.3771 11.6559 20.801 10.9307 20.9795Z" fill="white"/>
</g>
<defs>
<clipPath id="clip0_205_232">
<rect width="21" height="21" fill="white"/>
</clipPath>
</defs>
</svg>
