<svg width="21" height="28" viewBox="0 0 21 28" fill="none" xmlns="http://www.w3.org/2000/svg">
<path d="M9.38455 0.0558872C5.82294 0.411377 2.70096 2.51979 1.05077 5.66402C0.776796 6.19112 0.343541 7.39855 0.216113 8.01759C-0.25537 10.2486 0.050457 12.5286 1.07625 14.539C1.22916 14.8393 3.2489 17.9284 5.56171 21.4036C8.68369 26.0923 9.82417 27.7594 9.98346 27.8575C10.2765 28.0475 10.7225 28.0475 11.0156 27.8575C11.1685 27.7594 12.3281 26.0739 15.4183 21.4403C17.7247 17.9835 19.7508 14.8822 19.9228 14.5451C21.1207 12.1976 21.3309 9.47632 20.4963 7.01855C19.9611 5.44337 19.1264 4.13174 17.9158 2.96721C15.654 0.79138 12.5639 -0.262825 9.38455 0.0558872ZM11.6783 5.64563C13.3922 6.10531 14.7238 7.41081 15.157 9.05954C15.208 9.24954 15.2462 9.7031 15.2462 10.1015C15.2462 10.8554 15.1698 11.2538 14.9085 11.8483C14.316 13.1906 13.0608 14.2202 11.5827 14.5819C11.1303 14.6922 9.86877 14.6922 9.41641 14.5819C7.93824 14.2202 6.68308 13.1906 6.09054 11.8483C5.82931 11.2538 5.75285 10.8554 5.75285 10.1015C5.75285 9.34761 5.82931 8.94922 6.09054 8.35469C6.68308 7.00629 8.03381 5.90305 9.41641 5.63337C9.60755 5.5966 9.82417 5.55369 9.89426 5.54144C10.13 5.48627 11.3533 5.55982 11.6783 5.64563Z" fill="white"/>
</svg>
