<svg width="30" height="31" viewBox="0 0 30 31" fill="none" xmlns="http://www.w3.org/2000/svg">
<ellipse cx="15" cy="15.4671" rx="15" ry="15.3333" fill="#609EFF"/>
<path d="M14.9157 8.02794C13.0501 8.20569 11.4148 9.25989 10.5504 10.832C10.4069 11.0956 10.18 11.6993 10.1132 12.0088C9.86623 13.1243 10.0264 14.2643 10.5638 15.2695C10.6438 15.4196 11.7018 16.9642 12.9133 18.7018C14.5486 21.0462 15.146 21.8797 15.2294 21.9287C15.383 22.0238 15.6166 22.0238 15.7701 21.9287C15.8502 21.8797 16.4576 21.037 18.0762 18.7202C19.2844 16.9918 20.3457 15.4411 20.4358 15.2725C21.0632 14.0988 21.1733 12.7382 20.7361 11.5093C20.4558 10.7217 20.0186 10.0659 19.3845 9.48361C18.1997 8.39569 16.5811 7.86859 14.9157 8.02794ZM16.1172 10.8228C17.0149 11.0527 17.7125 11.7054 17.9394 12.5298C17.9661 12.6248 17.9861 12.8515 17.9861 13.0507C17.9861 13.4277 17.9461 13.6269 17.8092 13.9241C17.4989 14.5953 16.8414 15.1101 16.0671 15.2909C15.8302 15.3461 15.1694 15.3461 14.9324 15.2909C14.1581 15.1101 13.5007 14.5953 13.1903 13.9241C13.0534 13.6269 13.0134 13.4277 13.0134 13.0507C13.0134 12.6738 13.0534 12.4746 13.1903 12.1773C13.5007 11.5031 14.2082 10.9515 14.9324 10.8167C15.0325 10.7983 15.146 10.7768 15.1827 10.7707C15.3062 10.7431 15.947 10.7799 16.1172 10.8228Z" fill="white"/>
</svg>
