<svg width="39" height="39" viewBox="0 0 39 39" fill="none" xmlns="http://www.w3.org/2000/svg">
<path opacity="0.971" fill-rule="evenodd" clip-rule="evenodd" d="M17.9387 2.39919C24.4853 1.99532 28.8652 4.86445 31.0783 11.0066C32.0324 14.339 31.8039 17.5889 30.3928 20.7566C29.2072 23.3096 27.8361 25.7471 26.2795 28.0691C24.5143 30.6723 22.6608 33.2113 20.7189 35.6863C20.5031 35.9021 20.2873 36.118 20.0715 36.3338C19.6653 36.5876 19.259 36.5876 18.8527 36.3338C15.4406 32.3164 12.4318 28.0127 9.82637 23.4226C8.96281 21.8981 8.27726 20.2984 7.76973 18.6238C6.50488 13.5897 7.66011 9.2098 11.2355 5.48416C13.1379 3.73318 15.3722 2.70486 17.9387 2.39919ZM19.2336 4.22732C23.5893 4.36043 26.7758 6.3409 28.7932 10.1687C30.5135 14.3004 29.9549 18.0835 27.1174 21.5183C24.4214 24.3128 21.1588 25.3665 17.3293 24.6795C13.1018 23.6003 10.4485 20.947 9.36933 16.7195C8.66238 12.4411 9.99539 8.9499 13.3684 6.24587C15.1317 5.00223 17.0867 4.32938 19.2336 4.22732Z" fill="white"/>
<path opacity="0.977" fill-rule="evenodd" clip-rule="evenodd" d="M12.8348 10.0927C13.3572 10.0329 13.7254 10.236 13.9393 10.7021C13.9774 12.5046 13.9901 14.3074 13.9774 16.1103C15.1962 16.1103 16.4149 16.1103 17.6337 16.1103C17.6337 15.0947 17.6337 14.079 17.6337 13.0634C19.1773 12.8956 20.7007 13.0098 22.204 13.4062C23.306 13.709 24.2074 14.3057 24.9081 15.1963C24.9335 14.9169 24.9589 14.6377 24.9843 14.3584C25.4001 13.6838 25.9333 13.5823 26.5839 14.0537C26.6347 14.1552 26.6854 14.2568 26.7362 14.3584C26.7743 15.9324 26.787 17.5066 26.7743 19.081C26.1649 19.081 25.5556 19.081 24.9462 19.081C24.9462 18.7255 24.9462 18.3701 24.9462 18.0146C21.2899 18.0146 17.6337 18.0146 13.9774 18.0146C13.9774 18.3701 13.9774 18.7255 13.9774 19.081C13.3681 19.081 12.7587 19.081 12.1493 19.081C12.1366 16.288 12.1493 13.495 12.1874 10.7021C12.3192 10.4028 12.535 10.1996 12.8348 10.0927Z" fill="white"/>
<path opacity="0.929" fill-rule="evenodd" clip-rule="evenodd" d="M15.6531 13.2158C16.5708 13.2195 17.0786 13.6765 17.1766 14.5869C17.1004 15.4248 16.6434 15.8818 15.8055 15.958C14.7294 15.7578 14.3104 15.123 14.5486 14.0537C14.7908 13.5974 15.1589 13.3181 15.6531 13.2158Z" fill="white"/>
</svg>
