<svg width="21" height="21" viewBox="0 0 21 21" fill="none" xmlns="http://www.w3.org/2000/svg">
<g clip-path="url(#clip0_205_285)">
<path d="M10.0406 0.0410271C9.7166 0.094347 9.26953 0.254309 8.99062 0.418371C8.6502 0.615246 8.08418 1.19357 7.89551 1.52989C7.24336 2.71114 7.43613 4.1754 8.36719 5.08595C8.51894 5.23361 8.73633 5.43458 8.85117 5.53712L9.06445 5.72579V6.2631C9.06445 6.55841 9.05215 6.83321 9.03984 6.87013C8.97832 7.02189 8.81016 7.0547 8.08008 7.0547C7.48125 7.0547 7.3459 7.067 7.12852 7.14083C6.84961 7.23517 6.60762 7.38693 6.41484 7.59611C6.34512 7.66993 5.38535 8.98243 4.28613 10.5123C2.66602 12.7641 2.25586 13.3096 2.13691 13.367C2.02617 13.4244 1.86621 13.449 1.49707 13.4613C0.914648 13.4818 0.701367 13.5598 0.401953 13.851C0.127148 14.1217 0.0246094 14.376 0.0205078 14.7861C0.0205078 15.0651 0.0369141 15.1512 0.135352 15.3481C0.258398 15.6024 0.475781 15.8197 0.746484 15.9633C0.910547 16.0494 0.988477 16.0576 1.75547 16.0781L2.58398 16.0986L2.29688 16.316C0.635742 17.5834 1.09102 20.1879 3.08848 20.8647L3.4248 20.9795L9.1834 20.9918C12.3539 20.9959 14.9379 20.9959 14.9256 20.9836C14.9174 20.9754 13.2111 20.0279 11.1357 18.8754C9.06035 17.727 7.11211 16.6483 6.80449 16.476C6.0252 16.0453 5.16387 15.791 4.4748 15.791C4.34766 15.791 4.2082 15.7787 4.15898 15.7664C4.07695 15.7459 4.07695 15.7418 4.18359 15.627C4.24102 15.5654 4.85215 14.6754 5.53711 13.6541L6.78809 11.792L6.80039 13.4162L6.80859 15.0404L8.64609 16.0576C9.65508 16.6154 10.5 17.0748 10.5246 17.0748C10.5451 17.0748 11.3285 16.6195 12.2555 16.0617L13.9453 15.0486L13.9535 13.4039L13.9658 11.7592L15.1922 13.5598C15.8648 14.5483 16.4883 15.4465 16.5744 15.549L16.7303 15.7377L16.3734 15.7623C15.6885 15.8074 14.8312 16.0412 14.2037 16.357C14.0273 16.4473 13.408 16.8041 12.8297 17.1527L11.7715 17.7885L13.4654 18.7236C14.3924 19.2404 15.6598 19.9418 16.2791 20.2863L17.4029 20.9098L17.6121 20.8483C18.3135 20.6432 18.9 20.151 19.2158 19.5029C19.4127 19.1092 19.4824 18.7934 19.4824 18.334C19.4824 17.8746 19.4127 17.5629 19.2158 17.1609C19.0559 16.8369 18.6457 16.3652 18.3791 16.2012C18.2889 16.1438 18.2109 16.0863 18.2109 16.0699C18.2109 16.0535 18.6293 16.0371 19.1461 16.0289C20.0238 16.0166 20.0854 16.0125 20.2535 15.9223C20.5242 15.7787 20.7416 15.5613 20.8646 15.307C21.0246 14.9789 21.0287 14.5195 20.8729 14.1914C20.7375 13.9043 20.5078 13.6746 20.2207 13.5393C20.0197 13.4449 19.9295 13.4326 19.3799 13.4121C18.8631 13.3957 18.7441 13.3793 18.6252 13.3096C18.5227 13.2481 17.9156 12.4442 16.4391 10.418C15.3193 8.87169 14.3309 7.54689 14.2447 7.46896C14.1586 7.39513 13.9699 7.27208 13.8223 7.20236C13.5639 7.07931 13.5352 7.07521 12.8994 7.0629C12.5385 7.0547 12.1939 7.03009 12.1365 7.00958C11.9561 6.93986 11.9273 6.83321 11.9437 6.23439L11.9561 5.68888L12.1406 5.54122C12.4646 5.28282 12.9363 4.77833 13.0799 4.54044C13.1537 4.41329 13.2727 4.14669 13.3424 3.94982C13.4613 3.61349 13.4695 3.54786 13.4736 3.03517C13.4736 2.40763 13.3998 2.09591 13.1332 1.58732C12.8666 1.07462 12.2514 0.504503 11.71 0.266613C11.2342 0.0533314 10.5451 -0.0369034 10.0406 0.0410271Z" fill="white"/>
</g>
<defs>
<clipPath id="clip0_205_285">
<rect width="21" height="21" fill="white"/>
</clipPath>
</defs>
</svg>
