<svg width="39" height="40" viewBox="0 0 39 40" fill="none" xmlns="http://www.w3.org/2000/svg">
<path d="M20.5285 2.90703C17.4664 3.34121 15.2041 4.4 13.1779 6.34238C12.7057 6.79179 12.0582 7.51543 11.7307 7.94961C10.4129 9.70156 9.48359 12.0934 9.33125 14.0967C9.3084 14.4318 9.27031 14.8432 9.24746 15.0184C9.21699 15.2621 8.70664 16.1457 6.96992 18.9412L4.73047 22.5518L6.15488 22.5898C7.64785 22.6279 7.83066 22.6736 8.01348 22.9936C8.08965 23.1154 8.12012 24.0143 8.15059 26.6117C8.18106 29.5367 8.20391 30.0699 8.30293 30.1309C8.68379 30.367 10.2834 30.4355 12.8047 30.3289C14.351 30.268 14.3814 30.268 14.5414 30.4279C14.7014 30.5879 14.7014 30.626 14.7014 33.8633V37.1387H17.9387H21.176V30.7402V24.3418L20.7418 24.1209C18.4795 22.9783 15.7754 20.3961 14.3281 17.9814C12.7895 15.4297 12.34 12.9008 13.0789 11.0117C13.8559 9.03886 15.6535 7.72109 17.7178 7.60683C18.6852 7.55351 19.1955 7.69062 20.3457 8.33047C21.2826 8.85605 21.6178 8.97793 21.9072 8.90937C22.0291 8.88652 22.5547 8.62754 23.0803 8.3457C24.2229 7.72109 24.6646 7.58398 25.4721 7.58398C27.4068 7.5916 29.2578 8.75703 30.1262 10.5166C31.025 12.3219 30.8727 14.4395 29.6691 16.9227C28.359 19.6344 25.7158 22.4223 23.0346 23.9305L22.2424 24.3799V30.7555V37.1387H26.2414C28.4428 37.1387 30.2404 37.1158 30.2404 37.0777C30.2404 37.0473 29.9357 34.526 29.5625 31.4715C29.1893 28.4246 28.9074 25.8652 28.9227 25.7891C28.9455 25.7129 29.1664 25.4844 29.4254 25.2787C32.099 23.1764 33.8129 20.1371 34.2014 16.7855C34.3309 15.7268 34.2547 13.9672 34.0566 12.9617C33.5463 10.4557 32.4266 8.3914 30.5908 6.54804C28.7398 4.69707 26.7898 3.6459 24.1772 3.08984C23.6211 2.97558 23.065 2.92226 22.09 2.89941C21.3588 2.88418 20.658 2.89179 20.5285 2.90703Z" fill="white"/>
<path d="M17.1848 8.99317C15.2272 9.53399 13.8942 11.4383 14.0465 13.4949C14.1912 15.4525 15.25 17.6006 17.1238 19.7182C18.2283 20.9674 19.7594 22.209 21.0543 22.8945L21.6942 23.2373L22.1436 23.0164C22.8748 22.666 23.9946 21.8967 24.8401 21.1654C27.4071 18.9564 29.1895 15.9781 29.3723 13.5635C29.578 10.9584 27.5822 8.7875 25.0838 8.89414C24.5201 8.91699 24.3983 8.94746 23.7889 9.26738L23.1186 9.61016L23.0957 11.5297L23.0805 13.4492L24.8858 13.4645L26.6987 13.4873V14.7822V16.0771L24.8934 16.1L23.0805 16.1152V17.8977C23.0805 19.3221 23.0576 19.6953 22.9738 19.7639C22.9053 19.8248 22.4864 19.8477 21.6637 19.8324L20.4526 19.8096L20.4145 17.9814L20.3764 16.1533L18.5483 16.1152L16.7201 16.0771L16.6973 14.8279C16.6821 13.8758 16.7049 13.5635 16.7735 13.5102C16.8268 13.4797 17.6723 13.4492 18.6473 13.4492H20.4145V11.5982C20.4145 9.4502 20.4983 9.67109 19.508 9.19121C18.8987 8.89414 18.8225 8.87891 18.2131 8.88652C17.8475 8.88652 17.3905 8.93984 17.1848 8.99317Z" fill="white"/>
</svg>
