<svg width="32" height="32" viewBox="0 0 32 32" fill="none" xmlns="http://www.w3.org/2000/svg">
<g clip-path="url(#clip0_141_7552)">
<path opacity="0.986" fill-rule="evenodd" clip-rule="evenodd" d="M-0.03125 15.6561C-0.03125 14.7603 -0.03125 13.8644 -0.03125 12.9686C0.117948 11.3233 0.670031 9.82332 1.625 8.46857C3.06712 6.84907 4.86921 6.10946 7.03125 6.24982C7.95081 7.12095 9.04456 7.63132 10.3125 7.78107C10.7584 7.72351 10.9251 7.47351 10.8125 7.03107C10.7604 6.97901 10.7083 6.92689 10.6562 6.87482C8.5025 6.59563 7.11706 5.41857 6.5 3.34357C6.20951 1.21772 7.11575 0.394801 9.21875 0.874823C11.0228 1.44973 12.0957 2.66848 12.4375 4.53107C12.8752 4.11437 13.3647 3.77062 13.9062 3.49982C14.3928 3.34682 14.6845 3.51349 14.7812 3.99982C14.7557 4.14487 14.7036 4.28029 14.625 4.40607C12.9384 5.23862 12.0217 6.59276 11.875 8.46857C12.1182 8.82851 12.4099 8.8702 12.75 8.59357C12.8808 7.83189 13.1517 7.12357 13.5625 6.46857C13.6189 6.39351 13.6918 6.34138 13.7812 6.31232C15.6303 5.97381 17.422 6.16131 19.1562 6.87482C20.854 7.77151 21.9373 9.15689 22.4062 11.0311C22.3908 11.286 22.2658 11.4631 22.0312 11.5623C20.2304 11.6481 18.6887 12.3148 17.4062 13.5623C13.6799 17.0394 10.8362 21.1331 8.875 25.8436C8.79256 25.9678 8.678 26.0407 8.53125 26.0623C7.03925 26.2801 5.68509 25.9468 4.46875 25.0623C2.96421 23.7743 1.84962 22.2014 1.125 20.3436C0.54378 18.8211 0.158363 17.2586 -0.03125 15.6561ZM5.15625 9.96857C5.7411 9.91189 5.95985 10.1619 5.8125 10.7186C5.09966 11.3105 4.64132 12.0605 4.4375 12.9686C4.11018 14.5995 4.1831 16.2141 4.65625 17.8123C4.48764 18.3715 4.18556 18.4653 3.75 18.0936C3.12962 16.2161 3.06712 14.3202 3.5625 12.4061C3.87616 11.4439 4.40741 10.6314 5.15625 9.96857Z" fill="white"/>
<path opacity="0.98" fill-rule="evenodd" clip-rule="evenodd" d="M31.9688 15.5939C31.9688 15.7814 31.9688 15.9689 31.9688 16.1564C31.8841 16.2936 31.7591 16.3874 31.5938 16.4376C30.5243 16.4078 29.5034 16.6057 28.5312 17.0314C30.342 20.7176 29.5087 23.6238 26.0312 25.7501C25.7167 25.9683 25.4146 25.9579 25.125 25.7189C24.5155 24.2499 23.8072 22.8333 23 21.4689C22.7539 21.1084 22.4622 21.0668 22.125 21.3439C22.0361 21.502 22.0153 21.6687 22.0625 21.8439C22.9235 23.2325 23.6526 24.6908 24.25 26.2189C24.3434 26.533 24.2704 26.7934 24.0312 27.0001C22.2681 28.0251 20.4244 28.8689 18.5 29.5314C18.3358 29.4805 18.19 29.3972 18.0625 29.2814C17.5301 27.9871 16.8842 26.7579 16.125 25.5939C15.6924 25.2939 15.3903 25.3981 15.2188 25.9064C15.8394 26.9601 16.4124 28.0434 16.9375 29.1564C17.0881 29.4826 17.0568 29.7847 16.8438 30.0626C14.9131 30.7029 12.934 31.0779 10.9062 31.1876C9.68669 30.9159 9.04081 30.1554 8.96875 28.9064C8.976 28.6739 9.00725 28.4447 9.0625 28.2189C9.69669 26.337 10.4884 24.5245 11.4375 22.7814C11.6222 22.5453 11.8618 22.4724 12.1562 22.5626C12.4479 22.8126 12.7396 23.0626 13.0312 23.3126C13.6329 23.357 13.8307 23.0966 13.625 22.5314C13.2719 22.2304 12.9281 21.9179 12.5938 21.5939C12.4389 21.3533 12.4285 21.1033 12.5625 20.8439C13.0453 20.0694 13.5766 19.3298 14.1562 18.6251C14.3854 18.5001 14.6146 18.5001 14.8438 18.6251C15.7951 19.3261 16.6701 20.1178 17.4688 21.0001C17.879 21.1469 18.129 21.0011 18.2188 20.5626C18.1753 20.4443 18.1231 20.3298 18.0625 20.2189C17.2934 19.3659 16.4496 18.6055 15.5312 17.9376C15.2706 17.6968 15.2185 17.4155 15.375 17.0939C15.9021 16.4416 16.4749 15.8271 17.0938 15.2501C17.3438 15.1251 17.5938 15.1251 17.8438 15.2501C18.7935 15.8871 19.6893 16.5954 20.5312 17.3751C21.0384 17.4513 21.2572 17.2325 21.1875 16.7189C20.4191 15.9709 19.5962 15.2939 18.7188 14.6876C18.5107 14.4291 18.4794 14.1478 18.625 13.8439C20.7721 12.2911 22.9909 12.1974 25.2812 13.5626C25.747 13.8824 26.1949 14.2262 26.625 14.5939C26.8944 14.0984 27.1028 13.5775 27.25 13.0314C27.6014 12.7663 27.9139 12.808 28.1875 13.1564C28.1944 14.0004 27.9548 14.7712 27.4688 15.4689C27.5995 15.6677 27.7453 15.8552 27.9062 16.0314C29.1206 15.4887 30.3914 15.2699 31.7188 15.3751C31.7941 15.4611 31.8774 15.534 31.9688 15.5939ZM18.7188 23.9064C18.9718 23.9027 19.1697 24.0069 19.3125 24.2189C19.5 24.5522 19.6875 24.8856 19.875 25.2189C19.9479 25.7293 19.7292 25.9481 19.2188 25.8751C18.8995 25.4771 18.6182 25.05 18.375 24.5939C18.3105 24.2735 18.4251 24.0443 18.7188 23.9064Z" fill="white"/>
</g>
<defs>
<clipPath id="clip0_141_7552">
<rect width="32" height="32" fill="white"/>
</clipPath>
</defs>
</svg>
