<svg width="26" height="26" viewBox="0 0 26 26" fill="none" xmlns="http://www.w3.org/2000/svg">
<circle cx="13" cy="13" r="13" fill="white"/>
<g clip-path="url(#clip0_141_7832)">
<path d="M13.5029 6.5203C13.5029 6.53554 13.475 6.7412 13.4395 6.98241C13.4039 7.22363 13.376 7.43945 13.376 7.46484C13.376 7.50038 13.4141 7.51562 13.574 7.54101C14.351 7.66542 15.2879 8.03105 15.9658 8.48046C16.3822 8.75722 16.6463 8.9705 16.9916 9.31327C17.8854 10.1969 18.4719 11.2658 18.7461 12.5049C18.7918 12.7232 18.807 12.7588 18.8502 12.7537C18.9746 12.7435 19.7643 12.609 19.7795 12.5963C19.7896 12.5887 19.7693 12.4541 19.7363 12.2992C19.2564 10.0826 17.7889 8.20116 15.7576 7.20331C15.1152 6.88593 14.4652 6.66757 13.8584 6.56347C13.7264 6.54062 13.5918 6.51523 13.5613 6.50761C13.5283 6.49999 13.5029 6.50507 13.5029 6.5203Z" fill="#609EFF"/>
<path d="M8.79062 7.76963C8.54433 7.82041 8.43261 7.90673 7.78007 8.5542C7.43476 8.89697 7.10976 9.2372 7.06406 9.31084C6.60703 10.0116 6.74414 11.1745 7.46523 12.7411C8.27519 14.4931 9.72753 16.2603 11.3957 17.5196C12.3783 18.261 13.5488 18.8983 14.5187 19.2233C15.3211 19.4899 16.0752 19.5661 16.5551 19.4265C16.9156 19.3224 16.9943 19.2614 17.7103 18.5505C18.3121 17.9513 18.3832 17.87 18.4568 17.7126C18.5279 17.5603 18.5406 17.5069 18.5406 17.3419C18.5406 17.1769 18.5279 17.1235 18.4568 16.9712C18.3807 16.8087 18.307 16.7274 17.4564 15.8794C16.7074 15.1329 16.5119 14.9501 16.3977 14.8968C16.2047 14.8028 16.0244 14.7724 15.8594 14.8028C15.5852 14.8561 15.4811 14.9323 14.8463 15.5569C14.5162 15.8819 14.2268 16.1485 14.2039 16.1485C14.1404 16.1485 13.5437 15.8413 13.3127 15.689C12.4139 15.105 11.3957 14.1122 10.7432 13.188C10.5197 12.8706 10.4156 12.6954 10.2658 12.3856C10.1719 12.1927 10.149 12.1241 10.1643 12.0683C10.1744 12.0226 10.3877 11.789 10.7609 11.4132C11.2814 10.8901 11.3525 10.8089 11.4211 10.654C11.5557 10.362 11.5252 10.0827 11.3348 9.79326C11.2865 9.71963 10.8549 9.27021 10.375 8.79287C9.59296 8.01338 9.48632 7.91689 9.33906 7.84834C9.15878 7.76455 8.95312 7.73662 8.79062 7.76963Z" fill="#609EFF"/>
<path d="M13.3686 9.16352C13.333 9.34633 13.2416 10.0801 13.2518 10.0903C13.2568 10.0979 13.3533 10.1207 13.465 10.1436C14.7676 10.4127 15.8061 11.4258 16.1184 12.7309C16.1463 12.8401 16.1691 12.934 16.1742 12.9366C16.1869 12.9467 17.134 12.7791 17.1467 12.7665C17.1645 12.7512 17.1213 12.5354 17.0527 12.3018C16.5957 10.6844 15.2348 9.44536 13.5742 9.13305L13.3813 9.09751L13.3686 9.16352Z" fill="#609EFF"/>
</g>
<defs>
<clipPath id="clip0_141_7832">
<rect width="13" height="13" fill="white" transform="translate(6.7998 6.5)"/>
</clipPath>
</defs>
</svg>
