<svg width="11" height="11" viewBox="0 0 11 11" fill="none" xmlns="http://www.w3.org/2000/svg">
<g clip-path="url(#clip0_189_16491)">
<path d="M5.88577 0.202488C5.88577 0.214269 5.86417 0.373311 5.83668 0.559843C5.8092 0.746374 5.7876 0.91327 5.7876 0.932905C5.7876 0.960394 5.81705 0.972175 5.94075 0.99181C6.54158 1.08802 7.2661 1.37076 7.79035 1.7183C8.11237 1.93232 8.31657 2.09725 8.5836 2.36232C9.27475 3.04562 9.72832 3.87225 9.94037 4.83043C9.97572 4.99929 9.9875 5.02678 10.0209 5.02285C10.1171 5.01499 10.7277 4.91093 10.7395 4.90111C10.7474 4.89522 10.7317 4.79116 10.7061 4.67138C10.335 2.95726 9.20014 1.50232 7.62935 0.730666C7.13259 0.48523 6.62993 0.31637 6.16066 0.235867C6.05856 0.218196 5.95449 0.198561 5.93093 0.19267C5.90541 0.18678 5.88577 0.190707 5.88577 0.202488Z" fill="white"/>
<path d="M2.24167 1.16862C2.05121 1.20789 1.96482 1.27465 1.4602 1.77534C1.19317 2.04041 0.941841 2.30352 0.906498 2.36046C0.55307 2.90238 0.659099 3.80166 1.21673 5.01313C1.84308 6.36794 2.9662 7.73452 4.25621 8.70841C5.01608 9.28175 5.92124 9.77459 6.6713 10.0259C7.29176 10.2321 7.87491 10.291 8.24601 10.183C8.52483 10.1025 8.5857 10.0554 9.1394 9.50559C9.60474 9.04221 9.65972 8.97937 9.71666 8.85764C9.77164 8.73983 9.78146 8.6986 9.78146 8.57097C9.78146 8.44334 9.77164 8.40211 9.71666 8.2843C9.65776 8.15864 9.60082 8.09581 8.94305 7.44C8.36382 6.86274 8.21263 6.72136 8.12428 6.68013C7.97505 6.60748 7.83564 6.58392 7.70802 6.60748C7.49596 6.64872 7.41546 6.70762 6.92459 7.19064C6.66933 7.44196 6.44549 7.64813 6.42782 7.64813C6.37874 7.64813 5.91732 7.41055 5.73864 7.29274C5.04356 6.84114 4.25621 6.07341 3.75159 5.35871C3.5788 5.11327 3.4983 4.97779 3.38245 4.73824C3.30981 4.58902 3.29213 4.536 3.30392 4.49281C3.31177 4.45746 3.4767 4.27682 3.76533 3.98623C4.16785 3.58175 4.22283 3.51892 4.27584 3.39915C4.37991 3.17334 4.35634 2.95736 4.20908 2.73352C4.17178 2.67658 3.83798 2.32904 3.46688 1.95991C2.86213 1.35712 2.77966 1.28251 2.66578 1.22949C2.52637 1.1647 2.36733 1.1431 2.24167 1.16862Z" fill="white"/>
<path d="M5.78184 2.24647C5.75435 2.38784 5.68367 2.95529 5.69152 2.96314C5.69545 2.96903 5.77006 2.9867 5.85646 3.00437C6.86372 3.2125 7.66679 3.99593 7.9083 5.00517C7.9299 5.0896 7.94757 5.16224 7.9515 5.16421C7.96131 5.17206 8.69369 5.04247 8.70351 5.03265C8.71726 5.02087 8.68388 4.85398 8.63086 4.67334C8.27744 3.4226 7.22501 2.46441 5.94089 2.2229L5.79166 2.19542L5.78184 2.24647Z" fill="white"/>
</g>
<defs>
<clipPath id="clip0_189_16491">
<rect width="10.0531" height="10.0531" fill="white" transform="translate(0.702148 0.186768)"/>
</clipPath>
</defs>
</svg>
