<svg width="29" height="29" viewBox="0 0 29 29" fill="none" xmlns="http://www.w3.org/2000/svg">
<g clip-path="url(#clip0_141_7290)">
<path d="M9.15888 2.78687C8.85302 4.32183 8.60381 5.61323 8.60947 5.64722C8.60947 5.70386 10.1161 5.72085 15.9444 5.72085H23.2794V14.2396V22.7527L24.1913 22.9339C24.6897 23.0359 25.1202 23.0982 25.1372 23.0812C25.1995 23.0189 28.9944 3.88569 28.9548 3.84604C28.9321 3.82339 24.6444 2.96245 19.4278 1.93159C14.2112 0.895069 9.88955 0.0341305 9.82724 0.0228024C9.71963 -0.00551796 9.67998 0.15874 9.15888 2.78687Z" fill="white"/>
<path d="M0 10.1047V12.7894L5.30723 16.6353C8.22422 18.748 10.6541 20.5039 10.7051 20.5435C10.7844 20.6002 11.1979 20.3283 13.4578 18.6857C14.9191 17.6265 17.3434 15.8763 18.8443 14.7945L21.5744 12.8291V10.1217L21.5801 7.4199H10.79H0V10.1047ZM11.6793 9.67986C13.0557 10.031 14.1148 11.0959 14.449 12.4609C14.5453 12.8631 14.5453 13.758 14.449 14.1601C13.9619 16.1482 11.9965 17.383 9.99707 16.9638C9.33438 16.8279 8.71699 16.4824 8.17891 15.95C7.79375 15.5648 7.67481 15.4062 7.45957 14.9531C7.31797 14.6586 7.17637 14.2791 7.14238 14.1148C7.05176 13.6843 7.06309 12.8234 7.16504 12.4326C7.43125 11.3847 8.1959 10.4275 9.13613 9.97439C9.96875 9.56658 10.8467 9.47029 11.6793 9.67986Z" fill="white"/>
<path d="M10.1557 11.3733C9.60625 11.5716 9.24375 11.8888 8.96055 12.4269C8.82461 12.6874 8.80762 12.7724 8.80762 13.3105C8.80762 13.8825 8.81328 13.9222 9.0002 14.262C9.3457 14.8964 9.94043 15.2872 10.6484 15.3382C11.5264 15.4005 12.2967 14.936 12.6762 14.1091C12.8008 13.8429 12.8291 13.7126 12.8234 13.3048C12.8234 12.8687 12.8008 12.7724 12.6422 12.4495C12.2967 11.7472 11.6566 11.3224 10.875 11.2884C10.5635 11.2714 10.3709 11.294 10.1557 11.3733Z" fill="white"/>
<path d="M0 20.0168V25.1484H7.06309C13.9393 25.1484 14.1262 25.1484 14.0186 25.0408C13.9563 24.9842 10.807 22.7016 7.02344 19.9658C3.23984 17.2301 0.107617 14.9701 0.0736328 14.9361C0.0169922 14.8965 0 15.916 0 20.0168Z" fill="white"/>
<path d="M16.9244 18.2553C14.3813 20.1018 12.2969 21.6254 12.2969 21.648C12.2912 21.6707 13.3674 22.4637 14.6815 23.4152L17.0717 25.1484H19.326H21.5803V20.0225C21.5803 17.2018 21.5746 14.8965 21.569 14.9021C21.5576 14.9021 19.4676 16.4145 16.9244 18.2553Z" fill="white"/>
<path d="M0 27.9238V29H10.79H21.5801V27.9238V26.8477H10.79H0V27.9238Z" fill="white"/>
</g>
<defs>
<clipPath id="clip0_141_7290">
<rect width="29" height="29" fill="white"/>
</clipPath>
</defs>
</svg>
