<svg width="24" height="24" viewBox="0 0 24 24" fill="none" xmlns="http://www.w3.org/2000/svg">
<path d="M2.92053 1.57031C2.55491 1.66875 2.31116 1.80937 2.05335 2.06719C1.75803 2.3625 1.55178 2.79375 1.51428 3.20156C1.49085 3.4875 1.49553 3.51562 1.60803 3.62812L1.72991 3.75H12.0002H22.2705L22.3924 3.62812C22.5049 3.51562 22.5096 3.4875 22.4862 3.20156C22.4112 2.40469 21.7971 1.72031 21.0096 1.55156C20.8315 1.51406 18.3096 1.5 11.9627 1.50469C4.53772 1.50469 3.12678 1.51875 2.92053 1.57031Z" fill="white"/>
<path d="M2.625 10.9453V17.3953L2.74219 17.5078L2.85469 17.625H7.24219H11.625V18.7687V19.9125L11.4141 20.0156C10.4719 20.4703 10.4625 21.8719 11.4047 22.3312C11.8875 22.5703 12.3891 22.5234 12.8016 22.2047C13.5469 21.6328 13.4297 20.4234 12.5859 20.0156L12.375 19.9125V18.7687V17.625H16.7578H21.1453L21.2578 17.5078L21.375 17.3953V10.9453V4.49998H12H2.625V10.9453ZM14.5078 5.74217L14.625 5.85467V9.74998V13.6453L14.5078 13.7578C14.3953 13.875 14.3859 13.875 13.5 13.875C12.6141 13.875 12.6047 13.875 12.4922 13.7578L12.375 13.6453V9.74998V5.85467L12.4922 5.74217C12.6047 5.62498 12.6141 5.62498 13.5 5.62498C14.3859 5.62498 14.3953 5.62498 14.5078 5.74217ZM11.5078 7.24217L11.625 7.35467V10.5V13.6453L11.5078 13.7578C11.3953 13.875 11.3859 13.875 10.5 13.875C9.61406 13.875 9.60469 13.875 9.49219 13.7578L9.375 13.6453V10.5V7.35467L9.49219 7.24217C9.60469 7.12498 9.61406 7.12498 10.5 7.12498C11.3859 7.12498 11.3953 7.12498 11.5078 7.24217ZM17.5078 7.24217L17.625 7.35467V10.5V13.6453L17.5078 13.7578C17.3953 13.875 17.3859 13.875 16.5 13.875C15.6141 13.875 15.6047 13.875 15.4922 13.7578L15.375 13.6453V10.5V7.35467L15.4922 7.24217C15.6047 7.12498 15.6141 7.12498 16.5 7.12498C17.3859 7.12498 17.3953 7.12498 17.5078 7.24217ZM8.50781 8.74217L8.625 8.85467V11.25V13.6453L8.50781 13.7578C8.39531 13.875 8.38594 13.875 7.5 13.875C6.61406 13.875 6.60469 13.875 6.49219 13.7578L6.375 13.6453V11.25V8.85467L6.49219 8.74217C6.60469 8.62498 6.61406 8.62498 7.5 8.62498C8.38594 8.62498 8.39531 8.62498 8.50781 8.74217ZM19.6922 14.6859C19.8984 14.8453 19.9125 15.1031 19.725 15.2812C19.6219 15.375 19.5938 15.375 12 15.375C4.40625 15.375 4.37813 15.375 4.275 15.2812C4.0875 15.1031 4.10156 14.8453 4.30781 14.6859C4.41563 14.6015 19.5844 14.6015 19.6922 14.6859Z" fill="white"/>
<path d="M13.125 9.75V13.125H13.5H13.875V9.75V6.375H13.5H13.125V9.75Z" fill="white"/>
<path d="M10.125 10.5V13.125H10.5H10.875V10.5V7.875H10.5H10.125V10.5Z" fill="white"/>
<path d="M16.125 10.5V13.125H16.5H16.875V10.5V7.875H16.5H16.125V10.5Z" fill="white"/>
<path d="M7.125 11.25V13.125H7.5H7.875V11.25V9.375H7.5H7.125V11.25Z" fill="white"/>
</svg>
