<svg width="10" height="18" viewBox="0 0 10 18" fill="none" xmlns="http://www.w3.org/2000/svg">
<path d="M9.15895 17.9517C9.50823 17.8241 9.7676 17.5796 9.91976 17.2358C9.97855 17.1011 9.99584 16.9983 9.99584 16.7608C9.99584 16.1973 10.269 16.5163 6.38892 12.5361L2.94455 8.99891L6.38892 5.46175C10.2656 1.48155 9.99584 1.80053 9.99584 1.23699C9.9993 0.985351 9.982 0.903833 9.90938 0.740797C9.78143 0.464345 9.60506 0.2765 9.35261 0.138274C9.16587 0.0354905 9.09324 0.014225 8.84079 0.00359223C8.59872 -0.00704052 8.50881 0.00359226 8.33935 0.0673889C8.13878 0.145363 8.00737 0.272956 4.16529 4.20708C-0.316547 8.79689 0.00506761 8.42475 0.00506766 8.99891C0.00506771 9.57308 -0.316547 9.20094 4.1653 13.7907C7.96241 17.6788 8.13878 17.856 8.33244 17.9269C8.56414 18.012 8.95838 18.0261 9.15895 17.9517Z" fill="white"/>
</svg>
