<svg width="33" height="33" viewBox="0 0 33 33" fill="none" xmlns="http://www.w3.org/2000/svg">
<path opacity="0.979" fill-rule="evenodd" clip-rule="evenodd" d="M11.9561 2.0304C14.5598 1.87695 16.719 2.77929 18.4336 4.73743C18.5695 5.01335 18.5588 5.2819 18.4014 5.54309C18.2811 5.60656 18.1522 5.63879 18.0146 5.63977C17.4981 5.50705 16.9825 5.3674 16.4678 5.22083C15.3975 4.99926 14.3877 5.14965 13.4385 5.672C13.3203 5.79016 13.2021 5.90833 13.084 6.02649C13.0099 6.17176 12.9883 6.32215 13.0195 6.47766C13.5977 7.12026 14.1992 7.74333 14.8242 8.34681C14.8842 8.47307 14.9379 8.60197 14.9854 8.73352C14.9379 8.86507 14.8842 8.99398 14.8242 9.12024C13.2666 10.6779 11.709 12.2355 10.1514 13.7931C9.94241 13.9429 9.72752 13.9644 9.50684 13.8575C9.16517 13.5804 8.8429 13.2797 8.54004 12.9552C8.17917 12.7862 7.91065 12.8829 7.73438 13.2452C7.70698 13.4497 7.72851 13.643 7.79883 13.8253C6.41309 12.4396 5.02734 11.0538 3.6416 9.66809C3.8337 9.7834 4.04854 9.82639 4.28613 9.797C4.58398 9.66313 4.70215 9.43755 4.64062 9.12024C4.51426 8.92927 4.36386 8.75744 4.18945 8.60462C4.12945 8.47835 4.07574 8.34945 4.02832 8.2179C4.07574 8.08635 4.12945 7.95744 4.18945 7.83118C5.64146 6.35767 7.11311 4.90747 8.60449 3.48059C9.60964 2.73076 10.7269 2.24736 11.9561 2.0304Z" fill="white"/>
<path opacity="0.978" fill-rule="evenodd" clip-rule="evenodd" d="M24.9111 2.03037C25.9158 1.92635 26.8826 2.066 27.8115 2.44932C28.0244 2.69392 28.0566 2.96248 27.9082 3.25498C27.0489 4.11436 26.1894 4.97374 25.3301 5.83311C25.4155 6.30447 25.523 6.77709 25.6523 7.25108C26.1114 7.38469 26.5733 7.5136 27.0381 7.6378C27.9288 6.77935 28.8096 5.90922 29.6807 5.02744C30.0177 4.85849 30.3077 4.9122 30.5508 5.18858C31.3958 7.72249 30.7835 9.81721 28.7139 11.4728C27.4263 12.2803 26.0298 12.5596 24.5244 12.3106C23.5443 13.3124 22.5453 14.2899 21.5273 15.2433C20.2061 14.0079 18.9278 12.7296 17.6924 11.4083C18.6458 10.3904 19.6233 9.39137 20.625 8.41123C20.2565 6.03301 21.0407 4.15313 22.9775 2.77159C23.5931 2.4271 24.2377 2.18003 24.9111 2.03037Z" fill="white"/>
<path opacity="0.959" fill-rule="evenodd" clip-rule="evenodd" d="M2.22359 9.76512C2.29139 9.75552 2.35585 9.76622 2.41695 9.79735C4.16793 11.5483 5.9189 13.2993 7.66988 15.0503C7.71287 15.1147 7.71287 15.1792 7.66988 15.2436C7.29192 15.6432 6.89444 16.0191 6.47749 16.3716C5.9189 16.6724 5.36031 16.6724 4.80171 16.3716C3.52339 15.1792 2.28804 13.9438 1.09566 12.6655C0.771317 12.0164 0.814288 11.3933 1.22456 10.7964C1.57066 10.4611 1.90367 10.1174 2.22359 9.76512Z" fill="white"/>
<path opacity="0.977" fill-rule="evenodd" clip-rule="evenodd" d="M14.9854 10.2163C15.0532 10.2067 15.1176 10.2174 15.1787 10.2485C20.5606 15.6304 25.9424 21.0122 31.3242 26.394C32.3264 27.8558 32.1867 29.1986 30.9053 30.4223C29.7155 31.1842 28.5553 31.1413 27.4248 30.2934C22.043 24.9116 16.6611 19.5298 11.2793 14.1479C11.2363 14.0835 11.2363 14.019 11.2793 13.9546C12.5276 12.717 13.763 11.4709 14.9854 10.2163Z" fill="white"/>
<path opacity="0.98" fill-rule="evenodd" clip-rule="evenodd" d="M12.3426 16.6616C12.4104 16.652 12.4748 16.6627 12.5359 16.6938C13.748 17.9703 14.9833 19.2272 16.242 20.4643C16.285 20.5073 16.285 20.5503 16.242 20.5932C14.9314 21.9038 13.6209 23.2144 12.3103 24.5249C12.6788 26.9031 11.8946 28.783 9.95779 30.1645C8.42697 31.0018 6.8371 31.1308 5.18826 30.5513C4.91188 30.3082 4.85817 30.0182 5.02713 29.6811C5.9089 28.8101 6.77903 27.9292 7.63748 27.0386C7.50935 26.5905 7.3912 26.1394 7.28299 25.685C6.82395 25.5514 6.36205 25.4225 5.89724 25.2983C5.00654 26.1568 4.12569 27.0269 3.25467 27.9087C2.89155 28.0876 2.60151 28.0124 2.38455 27.6831C1.53805 25.0667 2.21481 22.9505 4.41482 21.3345C5.66139 20.6254 6.9934 20.3891 8.41092 20.6255C9.73446 19.3127 11.045 17.9914 12.3426 16.6616Z" fill="white"/>
</svg>
