<svg width="20" height="19" viewBox="0 0 20 19" fill="none" xmlns="http://www.w3.org/2000/svg">
<g clip-path="url(#clip0_135_3060)">
<path d="M8.727 0.0408211C7.99224 0.111328 7.05337 0.322851 6.37056 0.571486C5.83989 0.768164 4.87876 1.25059 4.42231 1.54746C3.00845 2.47891 1.85806 3.78145 1.11587 5.28809C0.64458 6.25293 0.381104 7.08047 0.221533 8.1084C0.106494 8.85059 0.106494 10.1494 0.221533 10.8916C0.470166 12.4873 1.08989 13.9531 2.05474 15.2445C2.38501 15.6861 3.17544 16.5025 3.62446 16.8662C4.40005 17.4971 5.48735 18.1131 6.39282 18.4322C7.48013 18.8182 8.43384 18.9814 9.61763 18.9814C10.5565 18.9814 11.0983 18.9146 11.9407 18.7031C12.668 18.5176 13.1022 18.3543 13.8295 17.998C14.8463 17.5008 15.6145 16.9367 16.4272 16.098C17.1879 15.315 17.6518 14.6582 18.1342 13.6748C18.5647 12.8027 18.8319 11.9789 18.984 11.0586C19.3032 9.14375 19.0249 7.16211 18.1936 5.43652C18.034 5.10625 17.9042 4.88359 17.8374 4.83164C17.4477 4.52363 16.8911 4.7834 16.8911 5.27324C16.8911 5.40312 16.9393 5.54414 17.0915 5.86699C17.6778 7.10273 17.9079 8.11953 17.9079 9.46289C17.9116 10.2682 17.8745 10.6207 17.7223 11.3109C16.969 14.6916 14.1932 17.2373 10.7309 17.7197C10.1186 17.8051 9.06841 17.7977 8.43755 17.7012C6.06255 17.3523 3.98813 16.0238 2.66333 14.0051C2.16978 13.248 1.71704 12.1719 1.52778 11.2998C1.27173 10.1049 1.27544 8.75039 1.55005 7.60742C2.01021 5.6666 3.09751 4.01152 4.70063 2.82031C5.79165 2.00762 7.04966 1.4918 8.46724 1.27285C9.04985 1.18379 10.2151 1.18379 10.8051 1.27656C12.0631 1.46953 13.195 1.90371 14.2489 2.60137C14.6868 2.89082 14.8204 2.93164 15.0542 2.83887C15.4512 2.69043 15.57 2.22656 15.2916 1.91484C15.1729 1.77754 14.6682 1.43984 14.2006 1.18379C12.5344 0.267187 10.5862 -0.137304 8.727 0.0408211Z" fill="#609EFF"/>
<path d="M15.9746 3.08002C15.7557 3.2099 15.6406 3.4808 15.7037 3.71459C15.7557 3.90014 15.9672 4.17104 16.1231 4.24526C16.5869 4.4642 17.0916 4.06342 16.9617 3.581C16.9135 3.40658 16.7057 3.1394 16.5572 3.06147C16.4051 2.98354 16.1193 2.99096 15.9746 3.08002Z" fill="#609EFF"/>
<path d="M8.24471 5.07673C8.17421 5.11755 8.07772 5.21403 8.03319 5.29196L7.94784 5.43669V7.42946V9.42595H7.38007C6.86424 9.42595 6.79745 9.43337 6.64901 9.50759C6.42264 9.62263 6.3076 9.82673 6.32616 10.0679C6.34471 10.2683 6.42635 10.4056 6.6119 10.5281C6.72694 10.6097 6.77147 10.6134 7.33924 10.6134H7.94784V10.966V11.3185H7.38007C6.86424 11.3185 6.79745 11.3259 6.64901 11.4002C6.42264 11.5152 6.3076 11.7193 6.32616 11.9605C6.34471 12.1609 6.42635 12.2982 6.6119 12.4207C6.72694 12.5023 6.77147 12.506 7.33924 12.506H7.94784V13.0293C7.94784 13.6267 7.98495 13.7529 8.20389 13.9013C8.46737 14.0795 8.83104 14.0015 9.03885 13.7195C9.10936 13.6267 9.11678 13.5525 9.12792 13.059L9.13905 12.506H10.5195C11.7478 12.5023 11.9111 12.4949 12.0187 12.4392C12.2117 12.3353 12.3008 12.1869 12.3193 11.9531C12.3342 11.723 12.2562 11.5634 12.0558 11.415C11.9519 11.3408 11.9037 11.3371 10.5418 11.3259L9.13534 11.3148V10.966V10.6134H9.79589C10.3228 10.6134 10.5121 10.5986 10.7607 10.5392C11.5586 10.3463 12.2377 9.81188 12.6014 9.08454C12.8389 8.60212 12.8982 8.34977 12.8982 7.81169C12.8982 7.2736 12.8426 7.02497 12.6014 6.53141C12.4529 6.23454 12.375 6.13063 12.0892 5.84489C11.707 5.46637 11.4658 5.31052 11.0019 5.14352L10.6754 5.02848L9.52499 5.01735C8.45624 5.00622 8.36717 5.01364 8.24471 5.07673ZM10.8127 6.357C12.1301 7.00641 11.9816 8.91755 10.5789 9.35544C10.3971 9.4111 10.2375 9.42595 9.74393 9.42595H9.13534V7.80798V6.19001L9.83299 6.20485L10.5307 6.21598L10.8127 6.357Z" fill="#609EFF"/>
</g>
<defs>
<clipPath id="clip0_135_3060">
<rect width="19" height="19" fill="white" transform="translate(0.117676)"/>
</clipPath>
</defs>
</svg>
