<svg width="61" height="60" viewBox="0 0 61 60" fill="none" xmlns="http://www.w3.org/2000/svg">
<path d="M19.8104 7.41559C13.9803 9.74532 9.04262 11.7273 8.84558 11.8201C8.64854 11.9128 8.42831 12.1214 8.34718 12.2837C8.17332 12.6778 8.16173 30.284 8.34718 31.8952C8.93831 37.3544 11.7085 42.5934 15.7652 46.001C16.9707 47.0094 29.6857 55.9575 30.1725 56.1429C30.3695 56.2125 30.5781 56.2125 30.7752 56.1429C31.0534 56.0386 42.5166 48.0758 44.0929 46.8819C48.8799 43.3004 51.9746 37.8064 52.6121 31.7908C52.7743 30.2493 52.7628 12.6546 52.6005 12.2953C52.5309 12.1562 52.3803 11.9707 52.2528 11.8896C52.0325 11.7505 31.0881 3.37044 30.6477 3.24294C30.497 3.19658 26.6721 4.6686 19.8104 7.41559ZM40.6157 9.47874L50.5837 13.4659L50.6185 21.5678C50.6532 29.9827 50.5953 31.6518 50.178 33.6338C49.3087 37.7485 46.921 41.7704 43.7568 44.4247C43.0613 45.0158 31.5981 53.1409 30.6129 53.7552C30.4275 53.8595 18.35 45.4447 16.9707 44.2393C13.7021 41.3879 11.4187 37.3312 10.619 32.9151C10.3756 31.5474 10.364 31.2693 10.364 22.4951V13.4659L20.274 9.49033C25.7216 7.29969 30.2884 5.50313 30.4159 5.50313C30.5434 5.49154 35.1333 7.28809 40.6157 9.47874Z" fill="white"/>
<path d="M21.5837 11.2637C16.8663 13.1646 12.8791 14.8104 12.74 14.9379L12.4966 15.1581L12.5429 23.6773L12.5777 32.2081L12.8791 33.4251C13.6557 36.5546 15.0581 39.2205 17.0633 41.3763C18.3151 42.7208 18.9294 43.1845 24.8407 47.3224C28.7004 50.023 30.242 51.043 30.4854 51.043C30.7172 51.043 32.2008 50.0693 35.8866 47.4962C41.9254 43.2656 42.5513 42.7904 43.8031 41.4575C45.8778 39.232 47.2803 36.601 48.0685 33.4251L48.3698 32.2081L48.4046 23.7353L48.4509 15.2509L48.1844 14.9611C47.9873 14.7293 45.7039 13.7789 39.3407 11.2289C34.6116 9.35121 30.6244 7.80965 30.4738 7.80965C30.3115 7.82124 26.3127 9.37439 21.5837 11.2637ZM38.4366 13.1646L46.353 16.3288V23.5035C46.353 31.5242 46.3067 32.1849 45.588 34.3292C44.7767 36.7748 43.409 38.9423 41.5661 40.6809C40.5461 41.6429 30.8099 48.551 30.4738 48.551C30.1376 48.551 20.4362 41.6661 19.4046 40.6925C17.2024 38.6409 15.684 35.9866 14.9074 32.8456C14.6756 31.9067 14.664 31.5126 14.6293 24.0946L14.5829 16.3288L22.4414 13.1761C26.7647 11.4491 30.3463 10.0235 30.4158 10.0235C30.4738 10.0119 34.0901 11.4375 38.4366 13.1646Z" fill="white"/>
<path d="M32.7689 25.6247L28.0399 30.3421L25.8029 28.1167C23.6006 25.9261 23.5543 25.8913 23.0674 25.8913C22.4184 25.8913 22.0127 26.2738 22.0127 26.8997C22.0127 27.3169 22.1402 27.4676 24.7713 30.0871C27.4487 32.7646 27.5415 32.8457 27.9819 32.8457C28.4455 32.8457 28.5267 32.7646 33.6961 27.5951C38.4831 22.7966 38.9351 22.3213 38.9351 21.962C38.9351 21.4405 38.4019 20.9073 37.8804 20.9073C37.5211 20.9073 37.0806 21.3245 32.7689 25.6247Z" fill="white"/>
</svg>
