<svg width="29" height="30" viewBox="0 0 29 30" fill="none" xmlns="http://www.w3.org/2000/svg">
<g clip-path="url(#clip0_141_7586)">
<path opacity="0.98" fill-rule="evenodd" clip-rule="evenodd" d="M9.08447 -0.0292969C9.36572 -0.0292969 9.64697 -0.0292969 9.92822 -0.0292969C12.1 0.525759 13.0844 1.97107 12.8813 4.30664C12.4076 6.08859 11.2826 7.06512 9.50635 7.23633C7.3324 7.07139 6.16054 5.86043 5.99072 3.60352C6.11397 1.54209 7.1452 0.331157 9.08447 -0.0292969Z" fill="white"/>
<path opacity="0.992" fill-rule="evenodd" clip-rule="evenodd" d="M16.3968 -0.0292969C17.1468 -0.0292969 17.8968 -0.0292969 18.6468 -0.0292969C22.9872 0.605338 26.0903 2.98815 27.9562 7.11914C28.3681 8.18314 28.64 9.27691 28.7718 10.4004C28.7718 11.1621 28.7718 11.9238 28.7718 12.6855C28.3423 16.365 26.6922 19.2849 23.8218 21.4453C22.3177 22.4819 20.6677 23.0873 18.8718 23.2617C14.6772 18.9217 10.5147 14.5564 6.38428 10.166C6.47821 9.49125 6.61884 8.82715 6.80615 8.17383C8.60075 9.19652 10.3914 9.1868 12.178 8.14453C14.1412 6.71959 14.9006 4.77622 14.4562 2.31445C14.3196 1.71175 14.0853 1.15511 13.753 0.644531C14.6175 0.316842 15.4987 0.0922324 16.3968 -0.0292969Z" fill="white"/>
<path opacity="0.966" fill-rule="evenodd" clip-rule="evenodd" d="M6.38428 12.6855C9.7761 16.1894 13.1604 19.705 16.5374 23.2324C16.5761 23.2812 16.5667 23.3202 16.5093 23.3496C15.2691 23.1926 14.0691 22.8704 12.9093 22.3828C11.6962 22.1348 10.5993 22.3985 9.61865 23.1738C8.57094 22.1411 7.53971 21.0864 6.5249 20.0098C6.55516 19.7904 6.64888 19.5952 6.80615 19.4238C7.32123 18.5091 7.47125 17.5325 7.25615 16.4941C6.76177 15.274 6.47113 14.0045 6.38428 12.6855Z" fill="white"/>
<path opacity="0.982" fill-rule="evenodd" clip-rule="evenodd" d="M3.79668 29.9707C3.44043 29.9707 3.08418 29.9707 2.72793 29.9707C2.26455 29.8562 1.85205 29.6316 1.49043 29.2969C1.10427 28.9142 0.738643 28.5138 0.393555 28.0957C0.219816 27.7734 0.0791909 27.4413 -0.0283203 27.0996C-0.0283203 26.748 -0.0283203 26.3965 -0.0283203 26.0449C0.0991883 25.4576 0.380438 24.9596 0.81543 24.5508C2.26855 23.3887 3.72168 22.2265 5.1748 21.0645C6.29041 22.2265 7.40607 23.3887 8.52168 24.5508C7.42481 26.0449 6.32793 27.5391 5.23105 29.0332C4.82914 29.4829 4.35102 29.7954 3.79668 29.9707Z" fill="white"/>
</g>
<defs>
<clipPath id="clip0_141_7586">
<rect width="28.8" height="30" fill="white"/>
</clipPath>
</defs>
</svg>
