<svg width="161" height="161" viewBox="0 0 161 161" fill="none" xmlns="http://www.w3.org/2000/svg">
<circle cx="80.5" cy="80.5" r="80" stroke="white" stroke-opacity="0.33"/>
<path d="M103.034 57.0916C102.418 57.3996 78.2151 81.5539 77.8747 82.1862C77.2101 83.4506 77.8099 85.25 79.1392 85.9957C79.9659 86.4658 81.0683 86.5145 81.814 86.1254C82.0733 85.9795 87.8444 80.3057 94.6368 73.4971C105.66 62.4574 106.99 61.0633 107.103 60.5121C107.362 59.0694 106.779 57.7887 105.547 57.1403C104.866 56.7674 103.699 56.7512 103.034 57.0916Z" fill="white"/>
<path d="M115.208 62.895C114.706 63.0895 110.913 66.7856 97.5709 80.1272L80.5818 97.1163L75.524 92.0585C72.7357 89.2864 70.223 86.9034 69.9313 86.7575C69.6395 86.6116 69.0721 86.4981 68.6506 86.4981C66.7701 86.4981 65.3598 88.2813 65.8299 90.0645C65.992 90.713 66.6729 91.4587 72.4439 97.246C75.9779 100.796 79.0742 103.811 79.3174 103.941C79.8361 104.2 81.0195 104.233 81.668 104.006C82.2678 103.779 118.272 67.8069 118.694 67.0126C119.877 64.7268 117.575 62.0196 115.208 62.895Z" fill="white"/>
<path d="M49.7002 86.6927C49.1814 86.9683 48.4681 87.6816 48.225 88.1517C47.9494 88.6704 47.9332 89.8538 48.1763 90.5023C48.3871 91.0859 60.8695 103.601 61.5504 103.925C62.2474 104.249 63.366 104.233 64.0469 103.86C65.2789 103.212 65.8625 101.931 65.5869 100.488C65.4896 99.9532 64.7115 99.0941 59.0539 93.4364C55.5199 89.8862 52.4074 86.8872 52.1156 86.7413C51.5158 86.4657 50.1703 86.4333 49.7002 86.6927Z" fill="white"/>
</svg>
