<svg width="15" height="15" viewBox="0 0 15 15" fill="none" xmlns="http://www.w3.org/2000/svg">
<g clip-path="url(#clip0_141_6953)">
<path d="M14.1283 10.8488C14.0901 10.7848 13.8533 10.2704 12.7142 9.21306C11.5216 8.10592 11.6818 8.2857 13.1182 6.37135C13.9931 5.20547 14.3428 4.49349 14.2334 4.18911C14.1292 3.89898 13.4858 3.97552 13.4858 3.97552L11.3463 3.98798C11.3463 3.98798 11.1878 3.96662 11.0695 4.03693C10.9547 4.10634 10.8808 4.26654 10.8808 4.26654C10.8808 4.26654 10.5417 5.16898 10.0896 5.93615C9.13644 7.55502 8.75464 7.64046 8.59889 7.53989C8.23667 7.30583 8.32745 6.59829 8.32745 6.09634C8.32745 4.52731 8.56507 3.87317 7.86377 3.70407C7.63059 3.648 7.45972 3.61062 6.86432 3.60439C6.10071 3.59638 5.4537 3.60706 5.08792 3.78595C4.84406 3.90521 4.65627 4.17131 4.77108 4.18644C4.91259 4.20513 5.23298 4.27277 5.40297 4.50417C5.62279 4.80231 5.61478 5.47336 5.61478 5.47336C5.61478 5.47336 5.74116 7.32007 5.3202 7.54968C5.03096 7.70721 4.63491 7.38593 3.78498 5.91657C3.34978 5.16453 3.02049 4.3324 3.02049 4.3324C3.02049 4.3324 2.9573 4.17754 2.84427 4.09477C2.70721 3.99421 2.51498 3.96217 2.51498 3.96217L0.480481 3.97463C0.480481 3.97463 0.175217 3.98353 0.0630793 4.11613C-0.0365986 4.2345 0.0550695 4.47836 0.0550695 4.47836C0.0550695 4.47836 1.64814 8.20471 3.45124 10.0835C5.10572 11.8056 6.98358 11.6925 6.98358 11.6925H7.8344C7.8344 11.6925 8.0916 11.6641 8.22243 11.5226C8.34347 11.3926 8.33902 11.1488 8.33902 11.1488C8.33902 11.1488 8.32211 10.0069 8.85254 9.83872C9.37496 9.67318 10.046 10.9423 10.7571 11.4309C11.2946 11.8002 11.7031 11.7192 11.7031 11.7192L13.605 11.6925C13.605 11.6925 14.6 11.6311 14.1283 10.8488Z" fill="white"/>
</g>
<defs>
<clipPath id="clip0_141_6953">
<rect width="14.2386" height="14.2386" fill="white" transform="translate(0.0166016 0.544922)"/>
</clipPath>
</defs>
</svg>
