<svg width="23" height="23" viewBox="0 0 23 23" fill="none" xmlns="http://www.w3.org/2000/svg">
<g clip-path="url(#clip0_205_270)">
<path opacity="0.998" fill-rule="evenodd" clip-rule="evenodd" d="M3.93067 4.73926C5.03884 4.73176 6.14693 4.73926 7.25488 4.76173C7.53192 4.85907 7.71906 5.04622 7.81641 5.32325C7.84637 9.4261 7.84637 13.529 7.81641 17.6318C7.71906 17.9089 7.53192 18.096 7.25488 18.1934C6.1468 18.2233 5.03875 18.2233 3.93067 18.1934C3.65365 18.096 3.46647 17.9089 3.36914 17.6318C3.33919 13.529 3.33919 9.4261 3.36914 5.32325C3.47485 5.04541 3.66202 4.85076 3.93067 4.73926Z" fill="white"/>
<path opacity="0.998" fill-rule="evenodd" clip-rule="evenodd" d="M15.7002 4.73926C16.8084 4.73176 17.9165 4.73926 19.0244 4.76173C19.3015 4.85907 19.4886 5.04622 19.5859 5.32325C19.6159 9.4261 19.6159 13.529 19.5859 17.6318C19.4886 17.9089 19.3015 18.096 19.0244 18.1934C17.9163 18.2233 16.8083 18.2233 15.7002 18.1934C15.4232 18.096 15.236 17.9089 15.1387 17.6318C15.1087 13.529 15.1087 9.4261 15.1387 5.32325C15.2444 5.04541 15.4316 4.85076 15.7002 4.73926Z" fill="white"/>
<path opacity="0.996" fill-rule="evenodd" clip-rule="evenodd" d="M-0.0224609 15.3857C-0.0224609 12.7803 -0.0224609 10.1748 -0.0224609 7.56934C0.0890365 7.30071 0.283698 7.11352 0.561523 7.00782C1.04046 6.98536 1.51962 6.97786 1.99902 6.98536C1.99902 9.98016 1.99902 12.9749 1.99902 15.9697C1.51962 15.9772 1.04046 15.9697 0.561523 15.9473C0.283698 15.8416 0.0890365 15.6544 -0.0224609 15.3857Z" fill="white"/>
<path opacity="0.996" fill-rule="evenodd" clip-rule="evenodd" d="M22.9775 7.56934C22.9775 10.1748 22.9775 12.7803 22.9775 15.3857C22.866 15.6544 22.6714 15.8416 22.3936 15.9473C21.9146 15.9697 21.4355 15.9772 20.9561 15.9697C20.9561 12.9749 20.9561 9.98016 20.9561 6.98536C21.4355 6.97786 21.9146 6.98536 22.3936 7.00782C22.6714 7.11352 22.866 7.30071 22.9775 7.56934Z" fill="white"/>
<path fill-rule="evenodd" clip-rule="evenodd" d="M9.18652 10.1299C10.7139 10.1299 12.2412 10.1299 13.7686 10.1299C13.7686 11.0283 13.7686 11.9268 13.7686 12.8252C12.2412 12.8252 10.7139 12.8252 9.18652 12.8252C9.18652 11.9268 9.18652 11.0283 9.18652 10.1299Z" fill="white"/>
</g>
<defs>
<clipPath id="clip0_205_270">
<rect width="23" height="23" fill="white"/>
</clipPath>
</defs>
</svg>
