<svg width="14" height="14" viewBox="0 0 14 14" fill="none" xmlns="http://www.w3.org/2000/svg">
<path d="M6.29622 0.570297C5.31234 0.664608 4.5706 0.878718 3.76514 1.29419C2.53655 1.93143 1.54502 2.94335 0.93073 4.18723C0.693679 4.66388 0.584075 4.957 0.459178 5.42601C0.306242 6.01736 0.260361 6.37676 0.257812 7.02928C0.257812 7.35555 0.270557 7.7073 0.2884 7.84494C0.428591 8.89 0.754854 9.78977 1.30287 10.6309L1.4864 10.9139L1.08112 12.1093C0.856811 12.7695 0.678386 13.3098 0.683484 13.3149C0.688581 13.32 1.24425 13.1467 1.92226 12.9301C2.60028 12.7134 3.16359 12.535 3.17634 12.535C3.18653 12.535 3.29104 12.5936 3.40829 12.6675C3.52554 12.7389 3.77024 12.8714 3.95121 12.9581C5.60037 13.7457 7.48403 13.8145 9.17142 13.1442C11.0831 12.3871 12.5513 10.7278 13.0764 8.73452C13.237 8.12277 13.2752 7.78886 13.2752 7.08026C13.2752 6.37166 13.237 6.03775 13.0764 5.42601C12.4595 3.08864 10.5861 1.27125 8.22067 0.718136C7.82303 0.626374 7.41011 0.577945 6.90797 0.570297C6.62758 0.5652 6.3523 0.5652 6.29622 0.570297ZM4.74138 3.59333C4.78471 3.61627 4.84334 3.67744 4.87392 3.73352C4.94784 3.86861 5.56978 5.35974 5.58762 5.4515C5.61056 5.5662 5.49586 5.76247 5.24352 6.04795C4.97843 6.34617 4.92235 6.44048 4.94529 6.54754C4.98862 6.74125 5.57743 7.52378 5.94192 7.86788C6.50524 8.40061 7.35658 8.90785 7.73637 8.93588C7.93264 8.94863 8.00146 8.8951 8.30223 8.49747C8.43732 8.31649 8.58006 8.13552 8.6234 8.09474C8.72026 7.99533 8.86554 7.97494 9.03123 8.03611C9.24024 8.11513 10.5223 8.73962 10.6141 8.80844L10.7008 8.87216L10.6855 9.14235C10.6498 9.83566 10.4051 10.1951 9.76277 10.5086C9.15102 10.8068 8.67183 10.7992 7.73637 10.4754C6.4772 10.0396 5.81193 9.62409 4.90706 8.71413C4.45335 8.26042 4.13218 7.87553 3.76514 7.3479C3.15849 6.48126 2.92654 5.8109 2.99536 5.13033C3.05144 4.58486 3.24261 4.18213 3.6275 3.79724C3.81357 3.61117 4.05572 3.5347 4.42276 3.54745C4.57825 3.55254 4.69295 3.56784 4.74138 3.59333Z" fill="white"/>
</svg>
