<svg width="14" height="15" viewBox="0 0 14 15" fill="none" xmlns="http://www.w3.org/2000/svg">
<g clip-path="url(#clip0_141_6948)">
<path d="M3.14194 2.57611C1.61123 2.6973 0.876171 3.15836 0.628517 4.15952C0.512593 4.62585 0.507324 4.76812 0.507324 7.0655C0.507324 9.41822 0.515228 9.55522 0.652228 10.0953C0.965748 11.3151 1.75877 11.8658 3.4054 12.0054C3.64252 12.0265 4.91504 12.0318 7.52858 12.0239C11.5437 12.0133 11.4436 12.016 12.0206 11.8895C13.0244 11.6708 13.5935 11.1123 13.8253 10.1243C13.9571 9.55522 13.965 9.42349 13.9755 7.39483C13.9913 4.9341 13.9571 4.41244 13.7436 3.86444C13.4591 3.12411 12.9032 2.78688 11.6781 2.60773C11.4225 2.56821 10.9193 2.56294 7.41002 2.55767C5.22329 2.55504 3.30265 2.56294 3.14194 2.57611ZM6.22181 5.34246C6.343 5.37671 9.08037 6.7915 9.20947 6.88635C9.42287 7.04706 9.43605 7.35795 9.23582 7.545C9.2042 7.57662 8.52447 7.94283 7.72618 8.3591C6.49054 9.00458 6.2587 9.11787 6.14541 9.12577C5.96625 9.13895 5.82398 9.05727 5.74495 8.89656L5.68435 8.78064V7.2552C5.68435 6.18554 5.69225 5.69814 5.71333 5.627C5.75022 5.50317 5.8556 5.40042 5.98996 5.353C6.11643 5.30821 6.09798 5.30821 6.22181 5.34246Z" fill="white"/>
</g>
<defs>
<clipPath id="clip0_141_6948">
<rect width="13.4892" height="13.4892" fill="white" transform="translate(0.494141 0.544922)"/>
</clipPath>
</defs>
</svg>
