<svg width="342" height="342" viewBox="0 0 342 342" fill="none" xmlns="http://www.w3.org/2000/svg">
<g opacity="0.44">
<path opacity="0.921" fill-rule="evenodd" clip-rule="evenodd" d="M99.8615 11.6892C80.1571 10.2297 67.5766 18.9133 62.1213 37.74C60.084 56.9417 68.2111 69.522 86.5021 75.4803C100.671 78.1067 112.138 73.7649 120.903 62.4549C129.945 45.8146 127.607 31.008 113.889 18.035C109.476 15.1576 104.8 13.0424 99.8615 11.6892ZM98.5255 21.7088C85.1949 20.688 76.3998 26.4771 72.1408 39.076C70.9157 56.5529 79.0429 65.5705 96.5216 66.1287C108.554 63.6697 115.233 56.3221 116.561 44.0857C115.274 32.681 109.262 25.222 98.5255 21.7088Z" fill="white"/>
<path opacity="0.921" fill-rule="evenodd" clip-rule="evenodd" d="M178.014 75.8143C157.529 75.7028 137.044 75.8143 116.561 76.1483C109.316 76.7067 103.638 79.9357 99.5276 85.8338C93.713 98.9093 87.8128 111.935 81.8265 124.91C64.9048 125.132 47.9825 125.356 31.0608 125.578C16.7884 128.957 10.6651 137.974 12.6917 152.631C14.6896 160.418 19.4769 165.65 27.053 168.328C39.7117 169.091 52.4031 169.425 65.1272 169.33C77.8514 169.425 90.5428 169.091 103.201 168.328C110.687 165.517 115.696 160.285 118.231 152.631C121.219 159.589 124.335 166.492 127.582 173.338C128.104 174.302 127.992 175.193 127.248 176.01C114.821 181.333 102.576 187.01 90.5101 193.043C82.3181 201.334 80.6482 210.797 85.5003 221.432C95.9654 244.588 106.43 267.744 116.895 290.9C122.863 298.756 130.768 301.762 140.608 299.918C154.263 295.213 159.495 285.75 156.305 271.529C148.932 254.891 141.473 238.304 133.928 221.765C137.834 219.701 141.842 217.809 145.951 216.088C161.697 250.5 177.395 285.011 193.043 319.623C198.862 327.8 206.767 331.029 216.756 329.308C229.786 324.968 235.242 315.95 233.121 302.256C206.522 241.374 179.469 180.701 151.963 120.234C155.471 119.697 158.922 119.809 162.317 120.568C169.509 137.039 177.079 153.293 185.028 169.33C194.006 177.631 203.915 178.856 214.752 173.004C223.875 165.243 226.213 155.78 221.766 144.615C212.792 124.137 203.44 103.876 193.711 83.8299C189.365 79.2644 184.133 76.5925 178.014 75.8143ZM177.346 85.8338C157.306 85.7223 137.267 85.8338 117.229 86.1678C113.054 86.8618 109.826 88.9773 107.543 92.5135C101.324 106.497 94.9788 120.413 88.5062 134.262C69.638 135.141 50.7125 135.587 31.7288 135.598C23.987 138.05 20.9812 143.282 22.7112 151.295C24.4386 155.027 27.222 157.588 31.0608 158.976C53.7718 159.422 76.4827 159.422 99.1937 158.976C102.038 158.052 104.376 156.382 106.207 153.967C108.879 148.177 111.551 142.389 114.223 136.599C116.718 134.306 119.279 134.195 121.905 136.265C127.891 149.241 133.791 162.266 139.606 175.342C140.339 178.017 139.783 180.355 137.936 182.355C124.52 188.237 111.161 194.249 97.8577 200.39C92.4659 205.307 91.4639 210.984 94.8519 217.424C105.094 240.135 115.336 262.846 125.578 285.557C132.036 291.791 138.492 291.791 144.95 285.557C147.373 281.755 147.818 277.747 146.285 273.533C138.492 256.166 130.7 238.799 122.907 221.432C121.452 217.122 122.899 214.339 127.248 213.082C133.339 210.594 139.351 207.922 145.283 205.066C148.589 203.296 151.372 203.853 153.633 206.736C169.78 243.592 186.368 280.219 203.397 316.617C211.752 321.876 218.321 320.206 223.102 311.607C223.643 308.43 223.42 305.312 222.434 302.256C194.433 239.91 166.713 177.455 139.272 114.89C139.478 112.013 141.036 110.454 143.948 110.215C152.233 109.587 160.472 109.81 168.662 110.883C176.641 127.845 184.546 144.878 192.375 161.982C198.833 168.216 205.289 168.216 211.746 161.982C214.559 157.66 214.781 153.207 212.414 148.623C203.993 130.221 195.755 111.741 187.7 93.1815C185.396 88.98 181.945 86.5305 177.346 85.8338Z" fill="white"/>
<path opacity="0.925" fill-rule="evenodd" clip-rule="evenodd" d="M306.931 137.267C282.661 137.156 258.391 137.267 234.123 137.601C229.369 140.005 228.925 143.122 232.787 146.953C257.947 147.399 283.107 147.399 308.267 146.953C312.087 143.024 311.642 139.796 306.931 137.267Z" fill="white"/>
<path opacity="0.989" fill-rule="evenodd" clip-rule="evenodd" d="M328.307 165.99C296.911 165.879 265.517 165.99 234.123 166.324C231.451 169.218 231.451 172.113 234.123 175.008C265.518 175.453 296.912 175.453 328.307 175.008C330.951 172.002 330.951 168.997 328.307 165.99Z" fill="white"/>
<path opacity="0.923" fill-rule="evenodd" clip-rule="evenodd" d="M282.885 194.045C257.724 193.933 232.563 194.045 207.404 194.379C204.598 196.399 204.041 198.96 205.734 202.06C206.338 202.863 207.116 203.42 208.072 203.73C232.565 204.176 257.056 204.176 281.549 203.73C284.072 203.21 285.408 201.652 285.557 199.055C285.271 197.035 284.381 195.365 282.885 194.045Z" fill="white"/>
</g>
</svg>
