<svg width="1206" height="529" viewBox="0 0 1206 529" fill="none" xmlns="http://www.w3.org/2000/svg">
<g opacity="0.05">
<line x1="34.772" y1="-59.0254" x2="34.772" y2="582" stroke="white"/>
<line x1="137.893" y1="-59.0254" x2="137.893" y2="582" stroke="white"/>
<line x1="241.014" y1="-59.0254" x2="241.014" y2="582" stroke="white"/>
<line x1="344.135" y1="-59.0254" x2="344.135" y2="582" stroke="white"/>
<line x1="447.255" y1="-59.0254" x2="447.255" y2="582" stroke="white"/>
<line x1="550.377" y1="-59.0254" x2="550.377" y2="582" stroke="white"/>
<line x1="787.078" y1="54.7085" x2="-306.051" y2="54.7085" stroke="white"/>
<line x1="787.078" y1="157.829" x2="-306.051" y2="157.829" stroke="white"/>
<line x1="787.078" y1="260.95" x2="-306.051" y2="260.95" stroke="white"/>
<line x1="787.078" y1="364.072" x2="-306.051" y2="364.072" stroke="white"/>
<line x1="787.078" y1="467.192" x2="-306.051" y2="467.192" stroke="white"/>
<line x1="656.78" y1="-59.0254" x2="656.78" y2="551.941" stroke="white"/>
<line x1="759.902" y1="-59.0254" x2="759.902" y2="551.941" stroke="white"/>
<line x1="863.022" y1="-59.0254" x2="863.022" y2="551.941" stroke="white"/>
<line x1="966.144" y1="-59.0254" x2="966.144" y2="551.941" stroke="white"/>
<line x1="1069.26" y1="-59.0254" x2="1069.26" y2="551.941" stroke="white"/>
<line x1="1172.39" y1="-59.0254" x2="1172.39" y2="551.941" stroke="white"/>
<line x1="1512.21" y1="54.7085" x2="419.079" y2="54.7085" stroke="white"/>
<line x1="1512.21" y1="157.83" x2="419.079" y2="157.83" stroke="white"/>
<line x1="1512.21" y1="260.95" x2="419.079" y2="260.95" stroke="white"/>
<line x1="1512.21" y1="364.072" x2="419.079" y2="364.072" stroke="white"/>
<line x1="1512.21" y1="467.193" x2="419.079" y2="467.193" stroke="white"/>
</g>
</svg>
