<svg width="35" height="41" viewBox="0 0 35 41" fill="none" xmlns="http://www.w3.org/2000/svg">
<path d="M8.99414 3.23438C2.65918 5.25293 0.62793 5.95117 0.462891 6.16699C0.24707 6.4209 0.234375 7.09375 0.234375 16.5518V26.6572L0.805664 27.6602C1.73242 29.2852 2.69727 30.4912 4.60156 32.3701C7.30566 35.0488 9.99707 36.9277 13.8818 38.832C15.0752 39.416 16.3701 40.0254 16.7637 40.1904L17.4873 40.4697L18.4141 40.1143C19.7979 39.5557 23.2256 37.8037 24.7109 36.877C28.7607 34.3379 32.4424 30.7832 34.1689 27.6982L34.7656 26.6572V16.5518C34.7656 7.04297 34.7529 6.4209 34.5371 6.1543C34.3721 5.93848 32.3916 5.26562 25.9678 3.22168C21.3721 1.76172 17.5381 0.568359 17.4619 0.581055C17.373 0.581055 13.5645 1.77441 8.99414 3.23438ZM25.2949 4.88477C29.4717 6.20508 32.9121 7.29688 32.9375 7.29688C32.9629 7.29688 32.9883 11.5244 32.9883 16.7041V26.1113L32.6074 26.835C31.96 28.0537 30.6777 29.6406 29.1035 31.1641C26.9707 33.2461 24.7109 34.8965 21.8164 36.4961C20.6104 37.1689 17.7031 38.5273 17.4873 38.5273C17.2588 38.5273 14.2373 37.0674 12.8027 36.2676C8.34668 33.7793 4.5127 30.3389 2.50684 27.0381L2.01172 26.2129V16.7803V7.34766L4.08105 6.6748C13.1201 3.78027 17.2207 2.49805 17.4365 2.48535C17.5889 2.47266 21.1182 3.55176 25.2949 4.88477Z" fill="#5D9CFF"/>
<path d="M10.8604 6.89062C6.48047 8.2998 4.60156 8.95996 4.47461 9.13769C4.32227 9.34082 4.29688 10.7119 4.29688 17.5039V25.6416L5.02051 26.7207C6.44238 28.8027 8.87988 31.0752 11.7617 32.9795C13.3613 34.0459 17.0684 35.9883 17.5 35.9883C17.8428 35.9883 20.4453 34.6934 22.1719 33.665C25.2061 31.8496 28.5068 28.917 29.9795 26.7207L30.7031 25.6416V17.5039C30.7031 9.9248 30.6904 9.34082 30.4873 9.09961C30.2334 8.79492 18.4395 4.99902 17.5635 4.93554C17.1826 4.91015 15.4941 5.40527 10.8604 6.89062ZM23.3018 8.51562L28.9258 10.2803V17.7324V25.1846L28.1768 26.1748C27.3516 27.2666 25.3457 29.2598 24.1523 30.1738C22.8193 31.1895 20.7246 32.4971 19.0869 33.335L17.5 34.1475L15.9131 33.335C14.1992 32.459 12.0918 31.1387 10.7715 30.1104C9.47656 29.0947 7.63574 27.2539 6.82324 26.1748L6.07422 25.1719V17.7324V10.2803L11.7617 8.47754C14.8848 7.4873 17.5 6.70019 17.5635 6.71289C17.6396 6.72558 20.2168 7.53808 23.3018 8.51562Z" fill="#5D9CFF"/>
<path d="M12.8407 13.251C12.0028 13.4668 11.0253 14.0508 10.4794 14.6602C9.15907 16.1328 8.84169 17.8467 9.52723 19.7383C9.76844 20.3604 10.162 20.8174 13.4755 24.1436C16.4081 27.1016 17.246 27.8633 17.4999 27.8633C17.7538 27.8633 18.5917 27.1016 21.5243 24.1436C24.8378 20.8174 25.2313 20.3604 25.4725 19.7383C25.8153 18.7861 25.9169 17.8975 25.7645 17.1104C25.079 13.5557 21.0038 11.9814 18.16 14.1523L17.4872 14.6729L16.9667 14.2158C16.6747 13.9746 16.1161 13.6572 15.7352 13.5049C14.9608 13.2129 13.5009 13.0859 12.8407 13.251ZM14.872 15.0664C15.1766 15.1553 15.7098 15.5234 16.2431 16.0186C17.411 17.085 17.5888 17.085 18.7694 15.9932C19.7723 15.0791 20.3309 14.8506 21.3847 14.9395C22.705 15.0537 23.7079 15.9805 23.9999 17.3389C24.1141 17.9102 24.1015 18.1514 23.9237 18.7861C23.7079 19.5225 23.5936 19.6494 20.5975 22.6582L17.5126 25.7686L14.5927 22.8613C12.6757 20.9443 11.5585 19.7256 11.33 19.3066C10.0604 16.9707 12.2948 14.292 14.872 15.0664Z" fill="#5D9CFF"/>
</svg>
